<?xml version="1.0" standalone="no"?>
<!DOCTYPE svg PUBLIC "-//W3C//DTD SVG 1.1//EN" "http://www.w3.org/Graphics/SVG/1.1/DTD/svg11.dtd" >
<svg xmlns="http://www.w3.org/2000/svg">
<metadata>Generated by IcoMoon</metadata>
<defs>
<font id="blue-iconset" horiz-adv-x="1024">
<font-face units-per-em="1024" ascent="960" descent="-64" />
<missing-glyph horiz-adv-x="1024" />
<glyph unicode="&#x20;" horiz-adv-x="0" d="" />
<glyph unicode="&#xe000;" glyph-name="cone-stroke" d="M874.494 150.975l-286.719 798.719h-151.552l-286.719-798.719h-149.504v-204.801h1024v204.801h-149.504zM464.893 908.734h94.209l102.809-286.719h-299.826l102.809 286.719zM347.337 581.054h327.68l73.319-204.801h-474.726l73.728 204.801zM258.865 335.295h505.857l66.355-184.32h-638.156l65.945 184.32zM983.038-12.864h-942.080v122.879h942.080v-122.879z" />
<glyph unicode="&#xe001;" glyph-name="documents-dollars-stroke" d="M940.217 779.212v5.238h-2.64l-172.846 175.485h-411.184c-60.255 0-109.992-49.78-109.992-109.992v-23.591h-62.853c-60.255 0-109.992-49.78-109.992-109.992v-670.432c0-60.255 49.78-109.992 109.992-109.992h492.348c60.255 0 109.992 49.78 109.992 109.992v23.591h60.255c62.853 0 109.992 49.78 109.992 109.992v589.268zM783.085 883.967l96.92-99.517h-96.92zM741.183 45.926c0-39.303-31.427-70.73-68.090-70.73h-492.348c-36.664 0-68.090 31.427-68.090 70.73v670.432c0 36.664 31.427 68.090 68.090 68.090h62.853v-604.982c0-60.255 49.78-109.992 109.992-109.992h387.593zM843.298 108.78h-489.751c-39.303 2.64-70.73 31.427-70.73 70.73v670.432c0 36.664 31.427 68.090 70.73 68.090h387.593v-172.846h172.846v-565.677c0-39.303-31.427-70.73-70.73-70.73zM403.327 268.552v-44.542h447.848v44.542zM673.093 357.594h-269.766v-44.542h269.766zM599.764 485.898c-13.115 0-26.188 2.64-34.067 13.115-10.475 7.878-15.713 18.353-15.713 31.427 0 7.878-7.878 15.713-15.713 15.713s-15.713-7.878-18.353-15.713c2.64-34.067 26.188-62.853 60.255-70.73h5.238v-23.591c0-7.878 5.238-15.713 15.713-15.713s18.353 7.878 18.353 15.713v23.591h5.238c36.664 5.238 65.493 41.902 60.255 81.207s-41.902 68.090-81.207 65.493c-13.115 0-26.188 2.64-34.067 10.475-10.475 10.475-15.713 20.952-15.713 34.067 2.64 26.188 23.591 44.542 49.78 44.542s47.14-18.353 47.14-44.542c0-10.475 7.878-18.353 18.353-18.353s15.713 7.878 15.713 18.353c0 36.664-26.188 65.493-60.255 73.329h-5.238v26.188c0 7.878-7.878 15.713-18.353 15.713s-15.713-7.878-15.713-15.713v-26.188h-5.238c-39.303-10.475-62.853-47.14-57.615-83.804 7.878-39.303 41.902-65.493 81.207-65.493 13.115 2.64 26.188-2.64 34.067-10.475 10.475-7.878 15.713-20.952 15.713-34.067 0-10.475-5.238-20.952-13.115-28.828-10.475-10.475-23.591-15.713-36.664-15.713z" />
<glyph unicode="&#xe002;" glyph-name="credit-card-brand-stroke" d="M143.362 304.595h778.255v40.979h-778.255v-40.979zM143.362 222.637h409.617v40.979h-409.617v-40.979zM716.809 550.339h163.83v40.979h-163.83v-40.979zM40.957 722.356c0 29.405 23.833 53.238 53.238 53.238h835.566c29.405 0 53.238-23.833 53.238-53.238v-548.842c0-29.405-23.833-53.238-53.238-53.238h-835.566c-29.405 0-53.238 23.833-53.238 53.238v548.842zM929.804 816.573h-835.566c-52.038 0-94.217-42.179-94.217-94.217v-548.842c0-52.038 42.179-94.217 94.217-94.217h835.566c52.038 0 94.217 42.179 94.217 94.217v548.842c0 52.038-42.179 94.217-94.217 94.217zM143.362 673.233h204.809v-204.809h-204.809v204.809zM184.341 632.254v-122.894h122.894v122.894h-122.894z" />
<glyph unicode="&#xe003;" glyph-name="credit-card-stroke" d="M140.075 591.661h784.925v41.076h-784.925zM140.075 509.548h784.925v41.076h-784.925zM717.303 263.207h166.661v41.076h-166.661zM91.774 780.039c-31.416 0-55.566-24.151-55.566-55.566v-553.076c0-31.416 24.151-55.566 55.566-55.566h840.454c31.416 0 55.566 24.151 55.566 55.566v553.076c0 31.416-24.151 55.566-55.566 55.566zM91.774 816.246h840.454c50.737 0 91.773-41.076 91.773-91.773v-553.076c0-50.737-41.076-91.773-91.773-91.773h-840.454c-50.737 0-91.773 41.076-91.773 91.773v553.076c0 50.737 41.076 91.773 91.773 91.773z" />
<glyph unicode="&#xe004;" glyph-name="card-stroke" d="M826.124 806.314c109.066 0 197.876-90.831 197.876-202.435v-311.888c0-111.604-88.767-202.435-197.876-202.435h-628.248c-109.109 0-197.876 90.831-197.876 202.435v311.888c0 111.604 88.767 202.435 197.876 202.435h628.248zM830.296 751.393h-631.646c-79.95 0-144.934-67.005-144.934-149.321v-315.715c0-82.359 64.984-149.364 144.934-149.364h631.646c79.95 0 145.020 67.005 145.020 149.364v315.715c0 82.273-65.070 149.321-145.020 149.321zM844.789 319.946v-51.222h-204.8v51.222h204.8zM896.011 627.146v-51.222h-767.979v51.222h767.979z" />
<glyph unicode="&#xe005;" glyph-name="chat-ellipsis-stroke" d="M1023.999 841.781v-617.909l-315.944 0.035 0.035-209.203-270.776 209.203-437.314-0.035v617.909h1024zM982.626 800.99h-941.252v-536.297l410.21-0.035 215.062-166.157 0.035 166.157 315.944 0.035v536.297zM703.087 592.776c36.475 0 66.159-29.015 66.159-64.867 0-35.854-29.684-64.87-66.159-64.87-36.515 0-66.194 29.015-66.194 64.87s29.68 64.867 66.194 64.867zM320.951 592.776c36.477 0 66.159-29.015 66.159-64.867 0-35.854-29.68-64.87-66.159-64.87-36.512 0-66.191 29.015-66.191 64.87s29.681 64.867 66.191 64.867zM521.102 592.776c36.475 0 66.155-29.015 66.155-64.867 0-35.854-29.68-64.87-66.155-64.87-36.515 0-66.194 29.015-66.194 64.87s29.68 64.867 66.194 64.867zM703.087 551.985c-13.77 0-24.819-10.823-24.819-24.041 0-13.222 11.087-24.044 24.819-24.044s24.817 10.823 24.817 24.044c0 13.217-11.082 24.041-24.817 24.041zM320.951 551.985c-13.769 0-24.818-10.823-24.818-24.041 0-13.222 11.086-24.044 24.818-24.044s24.819 10.823 24.819 24.044c0 13.217-11.087 24.041-24.819 24.041zM521.102 551.985c-13.77 0-24.819-10.823-24.819-24.041 0-13.222 11.087-24.044 24.819-24.044 13.731 0 24.817 10.823 24.817 24.044 0 13.217-11.087 24.041-24.817 24.041z" />
<glyph unicode="&#xe006;" glyph-name="bell-stroke" d="M915.755 251.346l-49.455 59.345c-32.582 39.564-50.037 89.601-50.037 140.8v111.128c0 154.764-116.94 283.345-266.467 302.545l-10.473 1.163v65.745c0 15.709-12.218 27.928-27.928 27.928s-27.928-12.218-27.928-27.928v-65.745l-9.891-1.163c-150.103-19.2-267.049-147.782-267.049-302.545v-111.128c0-51.2-17.453-101.237-50.033-140.8l-48.29-59.926c-22.69-27.346-27.345-65.164-11.636-97.746s47.126-52.946 83.198-52.946h162.326l1.163-10.473c8.145-86.691 80.867-153.599 169.303-153.599s161.163 68.073 169.31 153.599l1.163 10.473h162.903c36.073 0 66.908 20.364 82.619 52.363 13.964 33.163 9.891 69.818-12.218 98.327-0.582 0-0.582 0.582-0.582 0.582zM623.106 87.855c-8.727-54.109-55.272-95.999-111.709-95.999s-102.976 41.892-111.703 95.999l-2.328 13.382h228.066l-2.328-13.382zM876.774 176.874c-2.328-5.236-11.054-20.364-32-20.364h-666.168c-21.527 0-29.672 15.127-32.582 20.364-3.491 6.982-8.145 23.272 4.654 38.982l48.872 59.926h-0.582c40.727 49.455 62.836 112.291 62.836 176.873v109.963c1.163 137.309 111.709 249.6 249.594 249.6 137.891 0 249.012-111.709 249.012-248.436v-111.128c0-64.582 22.109-127.418 62.254-176.873l48.29-59.345c13.964-16.29 9.31-32.582 5.819-39.564z" />
<glyph unicode="&#xe007;" glyph-name="cell-phone-stroke" d="M702.039 959.912h-380.122c-34.493 0.13-67.598-13.494-92.026-37.878s-38.051-57.446-37.921-91.939v-764.365c-0.13-34.45 13.537-67.555 37.921-91.939s57.489-38.008 92.026-37.878h380.122c34.493-0.13 67.598 13.494 92.026 37.878s38.051 57.446 37.921 91.939v759.549c0.564 72.718-57.185 132.507-129.903 134.589zM783.869 99.4v-33.669c-0.781-21.52-9.328-41.999-24.080-57.706-15.186-15.533-36.012-24.21-57.749-24.037h-380.122c-44.646 1.258-80.528 37.097-81.786 81.743v33.669h543.737zM783.869 147.474h-543.737v600.923h543.737v-600.923zM783.869 825.323v-33.669h-543.737v33.669c1.258 44.603 37.14 80.485 81.786 81.743h380.122c21.737 0.13 42.607-8.461 57.966-23.777s23.95-36.229 23.82-57.923z" />
<glyph unicode="&#xe008;" glyph-name="cash-stroke" d="M895.659 651.114c24.789 0 45.312-19.285 45.312-43.648v-400.299c0-24.363-20.565-43.648-45.312-43.648h-850.347c-24.789 0-45.312 19.285-45.312 43.648v400.299c0 24.363 20.565 43.648 45.312 43.648h850.347zM885.632 596.927h-830.251v-379.264h830.251v379.264zM964.309 732.394c30.635 0 56.064-22.357 59.349-51.328l0.341-6.315v-402.901c0-14.976-12.373-27.093-27.691-27.093-13.568 0-24.875 9.6-27.221 22.229l-0.427 4.864v402.901c0 1.323-1.024 2.603-2.56 3.157l-1.749 0.299h-853.632c-15.275 0-27.691 12.117-27.691 27.093 0 13.312 9.771 24.363 22.699 26.667l4.992 0.427h853.632zM484.309 488.554c53.504 0 96.853-42.453 96.853-94.805s-43.349-94.805-96.853-94.805c-53.504 0-96.853 42.453-96.853 94.805s43.349 94.805 96.853 94.805zM484.309 434.41c-22.955 0-41.515-18.176-41.515-40.619s18.56-40.619 41.515-40.619 41.515 18.176 41.515 40.619c0 22.443-18.56 40.619-41.515 40.619z" />
<glyph unicode="&#xe009;" glyph-name="atsign-stroke" d="M766.999 445.77c0.047 0.706 0.047 1.459 0.047 2.165l-0.047-2.165zM751.094 415.89h0.847v-35.951c0-26.54 10.541-51.997 29.316-70.773s44.233-29.316 70.773-29.316 51.997 10.541 70.773 29.316c18.776 18.776 29.316 44.233 29.316 70.773v67.997c0 87.055-25.787 172.133-74.161 244.506s-117.077 128.794-197.496 162.11-168.886 42.021-254.293 25.034c-85.36-16.987-163.804-58.915-225.354-120.418s-103.477-139.946-120.418-225.354-8.282-173.874 25.034-254.293c33.316-80.42 89.737-149.122 162.11-197.496s157.451-74.161 244.506-74.161h35.951v-71.902h-35.951c-101.266 0-200.225 30.022-284.457 86.302s-149.828 136.229-188.555 229.777-48.892 196.508-29.128 295.797c19.764 99.336 68.514 190.532 140.134 262.152s162.815 120.371 262.152 140.134c99.336 19.764 202.249 9.6 295.797-29.128s173.497-104.371 229.777-188.555c56.28-84.184 86.302-183.191 86.302-284.457v-67.997c-0.047-36.657-11.764-72.373-33.551-101.877s-52.374-51.292-87.431-62.209c-35.010-10.87-72.608-10.258-107.242 1.741s-64.562 34.775-85.36 64.985l-10.635 15.435-12.799-13.646c-38.304-40.939-89.737-67.244-145.405-74.349s-111.994 5.459-159.38 35.481c-47.386 30.022-82.772 75.667-100.089 129.029s-15.482 111.053 5.223 163.192c20.705 52.139 58.915 95.431 108.136 122.347s106.254 35.857 161.31 25.269c55.056-10.635 104.701-40.139 140.322-83.478s55.009-97.736 54.821-153.828v-0.047c0-2.212-0.141-4.517-0.376-7.435v-0.282c-0.188-2.682-0.424-5.929-0.424-9.317v-15.058zM418.64 308.177c27.622-18.446 60.138-28.328 93.36-28.328 44.563 0 87.337 17.693 118.865 49.221s49.221 74.255 49.221 118.865c0 33.222-9.835 65.738-28.328 93.36s-44.704 49.174-75.432 61.879c-30.728 12.705-64.514 16.046-97.125 9.552s-62.538-22.493-86.066-45.974-39.527-53.456-46.021-86.066c-6.494-32.61-3.153-66.397 9.552-97.125s34.257-56.938 61.879-75.432z" />
<glyph unicode="&#xe00a;" glyph-name="bags-stroke" d="M778.233 186.559c0-79.915-81.909-143.64-122.884-143.64h-286.742c-61.442 0-122.884 63.767-122.884 143.64v354.701c0 79.915 72.318 159.499 149.204 159.499h219.447c77.010 0 163.858-79.584 163.858-159.499v-354.701zM614.417 737.292v182.747h60.28c13.949 0 21.629 5.438 21.629 19.928s-7.721 19.969-21.629 19.969h-325.433c-13.991 0-21.588-5.481-21.588-19.969s7.639-19.928 21.588-19.928h60.321v-182.747h-14.614c-104.866 0-190.179-88.592-190.179-197.444v-353.289c0-88.426 54.508-159.416 131.85-184.45v-21.546c0-24.618 19.263-44.629 42.885-44.629h6.974c23.663 0 43.549 20.010 43.549 44.629v22.459h164.398v-22.459c0-24.618 19.263-44.629 43.050-44.629h6.891c23.704 0 42.968 20.010 42.968 44.629v21.712c77.384 25.033 131.809 95.898 131.809 184.325v353.289c0 107.316-102.002 194.994-204.792 197.444zM672.536 242.231h-157.216c-13.119 0-23.788-10.461-23.788-23.289v-73.065c0-12.787 10.711-23.248 23.788-23.248h157.216c13.119 0 23.788 10.461 23.788 23.248v73.065c0 12.828-10.711 23.289-23.788 23.289zM573.442 737.292h-122.884v182.747h122.884v-182.747zM655.351 162.48h-122.884v39.854h122.884v-39.854z" />
<glyph unicode="&#xe00b;" glyph-name="apartments-stroke" d="M558.902 959.913c10.717 0 16.14-4.512 16.14-15.533v-226.182h365.5c10.717 0 17.746-10.673 17.746-21.694l1.692-740.546c0-11.021-8.721-19.958-19.438-19.958h-855.394c-10.717 0-19.438 8.938-19.438 19.958l-1.692 988.465c0 0 0 13.277 17.051 13.277l477.832 2.3zM372.334 133.459h-106.474v-155.459h106.474v155.459zM532.306 917.74h-425.68l1.692-477.572v-462.169h112.939v177.5c0 11.021 8.721 19.958 19.438 19.958h155.546c10.717 0 19.438-8.938 19.438-19.958v-177.5h116.627v939.741zM915.682 134.283l-338.947 1.215v-157.542h338.947v156.284zM915.682 676.286h-340.683v-498.745l340.683-1.128v499.873zM337.884 319.073c10.76 0 19.438-8.938 19.438-19.958v-39.917c0-11.021-8.721-19.958-19.438-19.958h-38.876c-10.76 0-19.438 8.938-19.438 19.958v39.917c0 11.021 8.721 19.958 19.438 19.958h38.876zM201.819 319.073c10.717 0 19.438-8.938 19.438-19.958v-39.917c0-11.021-8.721-19.958-19.438-19.958h-38.876c-10.717 0-19.438 8.938-19.438 19.958v39.917c0 11.021 8.721 19.958 19.438 19.958h38.876zM473.949 319.073c10.717 0 19.438-8.938 19.438-19.958v-39.917c0-11.021-8.721-19.958-19.438-19.958h-38.876c-10.717 0-19.438 8.938-19.438 19.958v39.917c0 11.021 8.721 19.958 19.438 19.958h38.876zM833.592 319.073c10.717 0 19.438-8.938 19.438-19.958v-39.917c0-11.021-8.721-19.958-19.438-19.958h-38.876c-10.717 0-19.438 8.938-19.438 19.958v39.917c0 11.021 8.721 19.958 19.438 19.958h38.876zM697.527 319.073c10.717 0 19.438-8.938 19.438-19.958v-39.917c0-11.021-8.721-19.958-19.438-19.958h-38.876c-10.717 0-19.438 8.938-19.438 19.958v39.917c0 11.021 8.721 19.958 19.438 19.958h38.876zM337.884 458.782c10.76 0 19.438-8.938 19.438-19.958v-39.917c0-11.021-8.721-19.958-19.438-19.958h-38.876c-10.76 0-19.438 8.938-19.438 19.958v39.917c0 11.021 8.721 19.958 19.438 19.958h38.876zM201.819 458.782c10.717 0 19.438-8.938 19.438-19.958v-39.917c0-11.021-8.721-19.958-19.438-19.958h-38.876c-10.717 0-19.438 8.938-19.438 19.958v39.917c0 11.021 8.721 19.958 19.438 19.958h38.876zM473.949 458.782c10.717 0 19.438-8.938 19.438-19.958v-39.917c0-11.021-8.721-19.958-19.438-19.958h-38.876c-10.717 0-19.438 8.938-19.438 19.958v39.917c0 11.021 8.721 19.958 19.438 19.958h38.876zM833.592 458.782c10.717 0 19.438-8.938 19.438-19.958v-39.917c0-11.021-8.721-19.958-19.438-19.958h-38.876c-10.717 0-19.438 8.938-19.438 19.958v39.917c0 11.021 8.721 19.958 19.438 19.958h38.876zM697.527 458.782c10.717 0 19.438-8.938 19.438-19.958v-39.917c0-11.021-8.721-19.958-19.438-19.958h-38.876c-10.717 0-19.438 8.938-19.438 19.958v39.917c0 11.021 8.721 19.958 19.438 19.958h38.876zM337.884 598.448c10.76 0 19.438-8.938 19.438-19.958v-39.917c0-11.021-8.721-19.958-19.438-19.958h-38.876c-10.76 0-19.438 8.938-19.438 19.958v39.917c0 11.021 8.721 19.958 19.438 19.958h38.876zM201.819 598.448c10.717 0 19.438-8.938 19.438-19.958v-39.917c0-11.021-8.721-19.958-19.438-19.958h-38.876c-10.717 0-19.438 8.938-19.438 19.958v39.917c0 11.021 8.721 19.958 19.438 19.958h38.876zM473.949 598.448c10.717 0 19.438-8.938 19.438-19.958v-39.917c0-11.021-8.721-19.958-19.438-19.958h-38.876c-10.717 0-19.438 8.938-19.438 19.958v39.917c0 11.021 8.721 19.958 19.438 19.958h38.876zM833.592 598.448c10.717 0 19.438-8.938 19.438-19.958v-39.917c0-11.021-8.721-19.958-19.438-19.958h-38.876c-10.717 0-19.438 8.938-19.438 19.958v39.917c0 11.021 8.721 19.958 19.438 19.958h38.876zM697.527 598.448c10.717 0 19.438-8.938 19.438-19.958v-39.917c0-11.021-8.721-19.958-19.438-19.958h-38.876c-10.717 0-19.438 8.938-19.438 19.958v39.917c0 11.021 8.721 19.958 19.438 19.958h38.876zM337.884 738.114c10.76 0 19.438-8.938 19.438-19.958v-39.917c0-11.021-8.721-19.958-19.438-19.958h-38.876c-10.76 0-19.438 8.938-19.438 19.958v39.917c0 11.021 8.721 19.958 19.438 19.958h38.876zM201.819 738.114c10.717 0 19.438-8.938 19.438-19.958v-39.917c0-11.021-8.721-19.958-19.438-19.958h-38.876c-10.717 0-19.438 8.938-19.438 19.958v39.917c0 11.021 8.721 19.958 19.438 19.958h38.876zM473.949 738.114c10.717 0 19.438-8.938 19.438-19.958v-39.917c0-11.021-8.721-19.958-19.438-19.958h-38.876c-10.717 0-19.438 8.938-19.438 19.958v39.917c0 11.021 8.721 19.958 19.438 19.958h38.876zM337.884 877.823c10.76 0 19.438-8.938 19.438-19.958v-39.917c0-11.021-8.721-19.958-19.438-19.958h-38.876c-10.76 0-19.438 8.938-19.438 19.958v39.917c0 11.021 8.721 19.958 19.438 19.958h38.876zM201.819 877.823c10.717 0 19.438-8.938 19.438-19.958v-39.917c0-11.021-8.721-19.958-19.438-19.958h-38.876c-10.717 0-19.438 8.938-19.438 19.958v39.917c0 11.021 8.721 19.958 19.438 19.958h38.876zM473.949 877.823c10.717 0 19.438-8.938 19.438-19.958v-39.917c0-11.021-8.721-19.958-19.438-19.958h-38.876c-10.717 0-19.438 8.938-19.438 19.958v39.917c0 11.021 8.721 19.958 19.438 19.958h38.876z" />
<glyph unicode="&#xe00c;" glyph-name="bill-stroke" d="M917.284 869.83v-746.651c0.96-13.88-6.279-27-18.28-33.201-3.52-1.92-7.479-2.72-11.4-2.359-8.88-0.32-17.52 3.12-23.96 9.479l-69.641 65.201-13.72-10.68v-168.282c0.88-13.56-5.799-26.44-17.12-33.201-11.6-6.48-25.96-3.479-34.241 7.12l-68.52 65.201-83.361-77.041c-13-12.080-32.68-12.080-45.681 0l-82.201 77.041-82.201-77.041c-6.32-5.799-14.4-9.159-22.84-9.479-8.48 0.119-16.6 3.479-22.84 9.479l-83.361 77.041-69.641-65.201c-10.359-10.32-25.68-13.12-38.801-7.12-12.68 6.16-21.36 18.72-22.84 33.201v747.851c2.4 54.161 44.801 97.161 97.042 98.361h39.96v40.28c0 52.161 46.801 90.082 97.042 90.082h490.928c1.92 0.039 3.879 0.039 5.799-0.039 46.001-2 81.721-42.28 79.801-90.041zM680.96 63.937l53.64-54.52v721.771c0 26.080-14.84 50.961-39.96 50.961h-490.928c-27.040-1.079-49.080-22.96-51.361-50.961v-721.771l59.361 54.52c13.84 12.92 34.68 13.44 49.080 1.2l83.361-77.041 82.201 77.041c13.36 11.080 32.321 11.080 45.681 0l81.081-77.041 83.361 77.041c12.72 12.16 32.44 11.64 44.52-1.2zM871.603 149.257v720.571c0.199 2.039 0.199 4.119 0.080 6.16-1.36 21.56-19.28 37.88-40.040 36.481h-490.928c-25.12 0-51.361-16.6-51.361-42.68v-40.28h405.287c50.241 0 85.641-46.2 85.641-98.361v-519.088c22.84 3.559 25.12 1.2 34.241-8.279l57.080-54.52zM453.756 561.704h-146.122c-12.6 0-22.84 10.6-22.84 23.72s10.24 23.72 22.84 23.72h146.122c12.6 0 22.84-10.6 22.84-23.72s-10.24-23.72-22.84-23.72zM307.634 455.023h283.125c12.6 0 22.84-10.6 22.84-23.72s-10.24-23.72-22.84-23.72h-283.125c-12.6 0-22.84 10.6-22.84 23.72s10.24 23.72 22.84 23.72zM590.759 300.94h-283.125c-12.6 0-22.84-10.6-22.84-23.72s10.24-23.72 22.84-23.72h283.125c12.6 0 22.84 10.6 22.84 23.72s-10.24 23.72-22.84 23.72z" />
<glyph unicode="&#xe00d;" glyph-name="books-stroke" d="M941.743 903.547l1.092-7.549 76.062-869.347c3.134-35.894-21.271-68.038-55.551-74.875l-7.502-1.092-165.655-14.481c-35.562-3.134-67.421 21.651-74.258 56.263l-1.092 7.549-69.13 789.772v-778.139c0-36.037-27.158-65.901-61.866-69.747l-7.549-0.427h-166.32c-35.704 0-65.284 27.443-69.035 62.53l-0.427 7.644v872.671c0 36.132 27.206 65.854 61.913 69.652l7.549 0.427h166.32c32.381 0 59.682-22.505 67.278-52.892 8.451 21.508 27.348 37.983 50.803 42.636l7.502 1.045 165.655 14.481c35.562 3.134 67.373-21.556 74.163-56.168zM240.663 954.445c35.704 0 65.237-27.348 68.988-62.435l0.427-7.644v-872.671c0-36.037-27.158-65.901-61.866-69.747l-7.549-0.427h-166.32c-35.704 0-65.284 27.443-69.082 62.53l-0.427 7.644v872.671c0 36.132 27.206 65.854 61.913 69.652l7.549 0.427h166.32zM870.002 895.428l-159.293-13.911c-5.175-0.475-9.211-4.226-10.303-9.116l-0.237-3.846 75.16-858.902c0.475-5.365 4.131-9.543 8.926-10.73l3.751-0.285 159.293 13.911c5.080 0.427 9.116 4.226 10.208 9.164l0.237 3.893-75.16 858.902c-0.57 6.6-6.172 11.49-12.582 10.968zM237.434 890.158h-159.91c-5.175 0-9.496-3.419-11.063-8.214l-0.57-3.798v-862.225c0-5.365 3.324-9.876 7.929-11.443l3.703-0.617h159.91c5.128 0 9.448 3.419 10.968 8.261l0.57 3.846v862.225c0 6.647-5.175 12.012-11.585 12.012zM573.113 890.158h-159.91c-5.175 0-9.496-3.419-11.063-8.214l-0.57-3.798v-862.225c0-5.365 3.324-9.876 7.929-11.443l3.703-0.617h159.91c5.128 0 9.448 3.419 10.968 8.261l0.57 3.846v862.225c0 6.647-5.175 12.012-11.585 12.012zM913.493 169.516l5.508-63.053-121.595-10.635-5.508 63.053 121.595 10.635zM218.49 163.106v-63.29h-122.069v63.29h122.069zM554.169 163.106v-63.29h-122.069v63.29h122.069zM905.516 264.095l5.508-63.053-121.595-10.635-5.508 63.053 121.595 10.635zM218.49 258.065v-63.29h-122.069v63.29h122.069zM554.169 258.065v-63.29h-122.069v63.29h122.069zM860.269 800.137l5.508-63.053-121.595-10.635-5.508 63.053 121.595 10.635zM218.49 796.149v-63.29h-122.069v63.29h122.069zM554.169 796.149v-63.29h-122.069v63.29h122.069z" />
<glyph unicode="&#xe00e;" glyph-name="box-stroke" d="M613.211 855.122c1.317 1.029 2.716 1.893 4.28 2.552l2.675 0.905 4.321 0.699 3.54-0.246 3.868-0.988 379.919-134.953c10.989-4.075 15.557-18.397 9.466-28.398l-2.634-3.333-89.269-90.916 68.238-127.916c3.499-6.586 2.552-14.899-2.016-20.867l-2.84-2.923-3.458-2.346-64.246-34.367v-236.364c-0.617-7.531-1.934-11.236-4.734-14.281l-3.54-3.087-3.704-2.387-345.882-155.449c-3.458-1.44-7.285-1.811-10.782-1.194l-4.239 1.276-403.584 154.708-5.679 2.84c-3.005 1.77-4.898 3.581-6.132 5.515s-2.182 4.486-2.634 8.108l-0.33 5.433-0.041 244.389-122.36 50.375c-10.042 4.239-14.158 17.122-9.507 26.669l2.057 3.169 2.799 2.881 121.084 103.139-71.86 120.384c-4.404 7.449-2.799 17.327 3.292 23.501l3.128 2.51 3.704 1.893 361.892 139.275c1.44 0.576 1.729 0.699 2.14 0.782 0.494 0.123 1.112 0.287 2.799 0.658l2.716 0.123 1.276-0.082 3.786-0.658c2.264-0.617 4.404-1.647 6.297-3.005l3.087-2.799 2.51-3.417 62.888-107.172 97.83 75.358zM398.166 312.963l-225.581 92.932v-218.872l367.531-140.591v362.92l-122.319-94.126c-4.239-3.21-9.796-4.486-14.981-3.622l-4.651 1.399zM886.286 186.282v205.291l-222.288-119.191c-7.655-4.116-17.657-2.305-23.501 3.909l-2.634 3.581-58.895 97.871v-329.584l307.36 138.163zM954.401 471.829l-57.207 107.461-310.075-139.687 74.659-124.581 292.666 156.807zM520.567 442.566l-363.703 139.275-101.205-86.348 347.24-142.856 117.667 89.886zM854.719 602.295l-345.018 127.709-304.56-125.323 353.826-135.57 295.753 133.142zM970.288 697.204l-341.725 121.207-79.844-61.447 352.138-130.591 69.472 70.83zM481.591 760.132l-54.697 93.549-325.921-125.405 60.089-100.176 320.529 132.031z" />
<glyph unicode="&#xe00f;" glyph-name="inverted-arrows-stroke" d="M1018.161 592.582v0l-265.179 300.035c-3.469 3.887-8.401 6.102-13.625 6.186v0 0c-5.224 0-10.239-2.257-13.708-6.144v0c-3.761-4.221-5.81-10.072-5.81-16.049v-148.952h-283.527c-11.034 0-19.56-10.364-19.56-22.485s8.526-22.443 19.56-22.443h303.045c11.034 0 19.518 10.364 19.518 22.443v117.858l217.828-246.415-217.828-246.457v117.858c0 12.079-8.443 22.485-19.518 22.485h-435.070v148.952c0 12.079-8.443 22.485-19.518 22.485-5.266 0-10.114-2.341-13.75-6.478 0 0 0 0 0 0l-265.137-299.993c-7.815-8.818-7.815-23.111 0-31.971v0l265.179-300.035c3.845-4.304 8.568-6.269 14.92-6.269v0l0.25 0.042c1.129 0.125 3.887 0.501 5.726 1.379 7.648 3.553 12.329 11.827 12.329 20.897v148.952h283.527c11.076 0 19.56 10.364 19.56 22.485s-8.484 22.443-19.56 22.443h-303.003c-11.076 0-19.56-10.364-19.56-22.443v-117.858l-217.828 246.415 217.828 246.457v-117.858c0-12.037 8.443-22.485 19.56-22.485h435.028v-148.994c0-8.693 5.057-16.508 12.914-20.061v0c7.356-3.177 15.046-1.755 20.27 4.095v0l265.137 300.035c7.815 8.818 7.815 23.111 0 31.971z" />
<glyph unicode="&#xe010;" glyph-name="calendar-stroke" d="M126.151 805.521h62.187c6.846 27.078 27.473 48.231 54.2 55.297v79.785c0 10.752 8.295 19.31 18.783 19.31s18.783-8.514 18.783-19.31v-80.18c26.376-7.066 47.002-28.219 53.849-55.297h356.357c6.89 27.078 27.473 48.231 54.2 55.297v80.18c0 10.752 8.295 19.31 18.783 19.31s18.783-8.514 18.783-19.31v-80.18c26.376-7.066 47.002-28.219 53.849-55.297h62.187c39.761 0.351 71.93-35.241 71.93-78.688v-711.485c0-43.404-32.169-79.039-71.93-79.039h-772.356c-39.41 0-71.93 35.636-71.93 79.039v711.485c0.351 43.404 32.871 79.039 72.281 79.039zM261.365 824.831c-13.385 0-26.025-7.417-32.52-19.31-3.248-6.32-4.696-12.99-5.047-20.056 0-6.671 1.799-12.99 5.047-18.564 10.489-18.564 33.617-24.884 51.303-14.088 5.793 3.335 10.489 8.163 13.736 14.088 3.248 5.574 4.696 12.244 5.047 18.564 0 7.066-1.799 13.736-5.047 20.056-6.495 11.893-19.178 18.915-32.52 19.31zM763.030 824.831c-13.385 0-26.025-7.417-32.52-19.31-3.248-6.32-4.696-12.99-5.047-20.056 0-6.671 1.799-12.99 5.047-18.564 10.489-18.564 33.617-24.884 51.303-14.088 5.793 3.335 10.489 8.163 13.736 14.088 3.248 5.574 4.696 12.244 5.047 18.564 0 7.066-1.799 13.736-5.047 20.056-6.495 11.893-18.783 18.915-32.52 19.31zM92.183 14.996c0-20.802 15.185-37.479 33.968-37.479h772.005c18.783 0 33.968 16.721 33.968 37.479v564.905h-840.336v-564.905h0.351zM932.519 618.477v108.004c0 20.802-15.185 37.479-33.968 37.479h-63.24c-11.586-40.814-53.497-64.206-92.907-51.961-24.576 7.417-43.36 27.078-50.601 51.961h-358.156c-11.586-40.814-53.497-64.206-92.907-51.961-24.576 7.417-43.36 27.078-50.601 51.961h-63.24c-18.783 0-33.968-16.721-33.968-37.479v-108.004h839.59z" />
<glyph unicode="&#xe011;" glyph-name="car-stroke" d="M760.685 826.389c33.517 0 63.444-20.243 76.508-50.881l2.714-7.263 71.249-219.343c65.489-21.037 112.864-85.942 112.864-162.118v-39.903c0-76.801-48.127-142.124-114.493-162.577 4.341-10.268 6.72-21.746 6.72-33.684 0-43.951-31.931-81.059-73.421-81.059h-68.786c-41.531 0-73.378 37.065-73.378 81.059 0 9.433 1.46 18.574 4.174 27.089h-385.633c2.714-8.515 4.174-17.615 4.174-27.047 0-43.951-31.931-81.059-73.421-81.059h-68.786c-41.531 0-73.378 37.065-73.378 81.059 0 11.979 2.337 23.416 6.637 33.768-66.325 20.411-114.409 85.733-114.409 162.493v39.903c0 75.633 46.665 140.162 111.445 161.657l48.084 212.288c8.097 35.771 37.983 61.941 73.629 65.281l7.722 0.375h519.784zM249.917 177.629h-68.786c-9.851 0-19.493-11.229-19.493-27.047 0-15.778 9.642-27.005 19.493-27.005h68.786c9.851 0 19.534 11.27 19.534 27.005 0 15.778-9.683 27.047-19.534 27.047zM842.787 177.629h-68.786c-9.851 0-19.493-11.229-19.493-27.047 0-15.778 9.642-27.005 19.493-27.005h68.786c9.809 0 19.534 11.27 19.534 27.005 0 15.778-9.683 27.047-19.534 27.047zM865.286 501.987h-706.529c-57.433 0-104.891-51.173-104.891-115.243v-39.903c0-64.029 47.417-115.16 104.891-115.16h706.529c57.392 0 104.808 51.131 104.808 115.16v39.903c0 64.029-47.417 115.243-104.808 115.243zM188.643 447.935c44.62 0 80.808-36.313 80.808-81.1s-36.188-81.059-80.808-81.059c-44.661 0-80.849 36.313-80.849 81.059s36.188 81.1 80.849 81.1zM835.4 447.935c44.62 0 80.808-36.313 80.808-81.1s-36.188-81.059-80.808-81.059c-44.661 0-80.849 36.313-80.849 81.059s36.188 81.1 80.849 81.1zM188.643 393.883c-14.901 0-26.964-12.104-26.964-27.047s12.063-27.005 26.964-27.005c14.86 0 26.921 12.104 26.921 27.005s-12.063 27.047-26.921 27.047zM835.4 393.883c-14.901 0-26.964-12.104-26.964-27.047s12.063-27.005 26.964-27.005c14.86 0 26.921 12.104 26.921 27.005s-12.063 27.047-26.921 27.047zM760.685 772.294h-519.784c-11.979 0-22.623-7.43-27.215-18.574l-1.586-4.967-43.618-192.712h683.655l-63.487 195.466c-3.507 10.894-12.605 18.616-23.291 20.411l-4.675 0.375z" />
<glyph unicode="&#xe012;" glyph-name="dumbbell-stroke" d="M894.932 645.199c0.749 0.25 1.537 0.499 2.327 0.749 0 0 0.042 0 0.042 0zM889.321 715.717v-76.628l5.318 1.87c6.732 2.369 13.754 3.864 21.11 3.864h44.879c34.906 0 63.33-28.257 63.33-62.999v-267.782c0-34.74-28.423-62.999-63.33-62.999h-44.879c-7.355 0-14.378 1.496-21.11 3.864l-5.318 1.87v-76.628c0-34.74-28.423-62.999-63.33-62.999h-44.879c-34.906 0-63.33 28.257-63.33 62.999v160.155h-411.689v-160.155c0-34.74-28.423-62.999-63.33-62.999h-44.838c-34.906 0-63.33 28.257-63.33 62.999v76.628l-5.318-1.87c-6.732-2.369-13.754-3.864-21.11-3.864h-44.879c-34.906 0-63.33 28.257-63.33 62.999v267.782c0 34.74 28.423 62.999 63.33 62.999h44.879c7.355 0 14.378-1.496 21.11-3.864l5.318-1.87v76.628c0 34.74 28.423 62.999 63.33 62.999h44.838c34.906 0 63.33-28.257 63.33-62.999v-160.155h411.689v160.155c0 34.74 28.423 62.999 63.33 62.999h44.879c34.906 0 63.33-28.257 63.33-62.999zM306.177 377.041h411.689v141.744h-411.689v-141.744zM108.248 287.78c14.544 0 26.387 11.801 26.387 26.263v267.782c0 14.461-11.843 26.263-26.387 26.263h-44.879c-14.544 0-26.387-11.801-26.387-26.263v-267.782c0-14.461 11.843-26.263 26.387-26.263h44.879zM242.846 153.889c14.544 0 26.387 11.801 26.387 26.263v535.565c0 14.461-11.843 26.263-26.387 26.263h-44.838c-14.544 0-26.387-11.801-26.387-26.263v-535.565c0-14.461 11.843-26.263 26.387-26.263h44.838zM826.033 153.889c14.544 0 26.387 11.801 26.387 26.263v535.565c0 14.461-11.843 26.263-26.387 26.263h-44.879c-14.544 0-26.387-11.801-26.387-26.263v-535.565c0-14.461 11.843-26.263 26.387-26.263h44.879zM960.589 287.78c14.544 0 26.387 11.801 26.387 26.263v267.782c0 14.461-11.843 26.263-26.387 26.263h-44.879c-14.544 0-26.387-11.801-26.387-26.263v-267.782c0-14.461 11.843-26.263 26.387-26.263h44.879z" />
<glyph unicode="&#xe013;" glyph-name="dart-board-stroke" d="M903.384 954.776l4.053-3.371 33.408-33.408 29.355 29.27c11.349 11.349 29.782 11.349 41.174 0 10.112-10.112 11.221-25.771 3.371-37.12l-3.371-4.053-29.312-29.27 33.451-33.451c11.349-11.349 11.349-29.782 0-41.174-10.112-10.112-25.771-11.221-37.12-3.371l-4.011 3.371-33.494 33.494-31.019-31.062 33.451-33.408c11.349-11.349 11.349-29.782 0-41.174-10.112-10.112-25.771-11.221-37.12-3.371l-4.053 3.371-33.451 33.451-103.382-103.51c64.384-73.558 104.491-168.919 107.734-273.538l0.213-13.867c0-241.154-195.457-436.654-436.611-436.654s-436.611 195.5-436.611 436.654c0 241.111 195.5 436.568 436.611 436.568 110.081 0 210.647-40.747 287.447-107.947l103.467 103.425-33.451 33.451c-11.349 11.349-11.349 29.782 0 41.174 10.112 10.112 25.771 11.221 37.12 3.371l4.053-3.371 33.408-33.451 31.062 31.019-33.451 33.408c-11.349 11.349-11.349 29.782 0 41.174 10.112 10.112 25.771 11.221 37.12 3.371zM436.607 750.956c-208.94 0-378.371-169.431-378.371-378.371 0-208.983 169.431-378.413 378.371-378.413s378.371 169.431 378.371 378.413c0 93.995-34.304 180.012-91.051 246.188l-103.339-103.382c30.635-39.424 48.896-89.003 48.896-142.806 0-128.684-104.193-232.876-232.876-232.876s-232.876 104.235-232.876 232.876c0 128.598 104.278 232.876 232.876 232.876 53.846 0 103.382-18.261 142.849-48.896l103.339 103.382c-66.176 56.747-152.15 91.009-246.146 91.009zM436.607 547.221c-96.47 0-174.679-78.209-174.679-174.636s78.166-174.679 174.679-174.679c96.513 0 174.679 78.123 174.679 174.679 0 37.718-11.947 72.662-32.299 101.206l-121.814-121.814c-11.349-11.349-29.782-11.349-41.174 0-10.112 10.112-11.221 25.771-3.371 37.12l3.371 4.053 121.814 121.814c-28.544 20.309-63.488 32.299-101.206 32.299z" />
<glyph unicode="&#xe014;" glyph-name="cutlery-stroke" d="M691.165 908.682c-9.171 0-18.43-2.984-26.241-9.039-62.837-47.742-83.724-179.428-73.763-232.304 12.769-67.883 50.858-87.235 58.361-90.438 0.044-0.088 0.132-0.088 0.263-0.132l6.758-2.984c10.049-4.432 16.324-15.49 15.709-27.469l-27.031-507.041c2.413-21.809 11.848-36.991 25.67-45.109 11.497-6.889 20.843-8.469 29.707-5.617 10.926 3.554 21.194 11.585 27.601 21.589 5.704 9.039 9.303 20.756 8.864 29.137-0.307 6.099-27.031 507.041-27.031 507.041-0.702 12.067 5.704 23.169 15.885 27.557l6.889 2.984c7.591 3.247 45.636 22.686 58.449 90.526 10.005 52.876-10.926 184.562-73.763 232.304-7.811 6.056-17.070 9.039-26.285 9.039zM692.306-64.021c-14.832 0-29.883 4.388-45.197 13.296-28.215 16.368-47.654 46.952-51.867 81.706-0.57 4.739-0.878 9.303-0.834 13.91l26.416 484.531c-32.033 17.816-67.269 58.23-80.126 124.709-12.287 64.154 10.312 223.704 95.616 287.375 32.735 24.573 76.923 24.442 109.79 0 85.26-63.759 107.903-223.221 95.528-287.375-12.813-66.567-48.093-106.981-80.17-124.797 26.416-483.829 26.416-483.872 26.416-485.057 1.053-19.264-5.836-43.31-18.386-62.574-12.989-19.834-32.911-35.236-54.675-42.125-7.372-2.457-14.876-3.598-22.467-3.598zM342.752-64.065c-17.772 0-35.763 5.748-54.675 17.201-26.241 16.104-44.188 45.109-48.269 77.669-0.614 4.213-0.921 8.732-0.878 13.164l28.566 510.376-68.629 76.879c-12.682 13.998-19.702 32.208-19.702 51.34v250.032c0 15.007 11.936 27.294 26.679 27.294s26.767-12.287 26.767-27.294v-250.032c0-5.31 1.887-10.356 5.485-14.261l68.147-75.475c10.136-11.453 15.402-26.548 14.568-41.555l-28.479-509.367c2.413-20.273 10.882-34.359 23.169-41.906 18.342-11.277 29.181-10.18 36.64-8.074 11.628 3.554 22.686 11.453 29.576 21.238 6.143 8.864 10.005 20.492 9.61 28.786l-28.479 509.367c-0.878 14.963 4.344 30.014 14.437 41.38l68.278 75.65c3.598 3.905 5.485 8.952 5.485 14.261v250.032c0 15.007 12.023 27.294 26.679 27.294 14.744 0 26.767-12.287 26.767-27.294v-250.032c0-19.088-7.065-37.342-19.702-51.34l-68.191-75.475 28.040-510.771c1.141-20.756-6.143-44.495-19.439-63.539-13.822-19.746-34.973-35.017-58.142-41.862-8.074-2.37-16.148-3.598-24.31-3.598zM294.834 660.405c-14.744 0-26.679 12.287-26.679 27.294v244.854c0 15.095 11.936 27.382 26.679 27.382s26.679-12.287 26.679-27.382v-244.854c0-15.007-11.936-27.294-26.679-27.294zM382.245 660.405c-14.744 0-26.679 12.287-26.679 27.294v244.854c0 15.095 11.936 27.382 26.679 27.382s26.679-12.287 26.679-27.382v-244.854c0-15.007-11.936-27.294-26.679-27.294z" />
<glyph unicode="&#xe015;" glyph-name="ellipsis-stroke" d="M153.6 601.535c84.685 0 153.6-68.915 153.6-153.549 0-84.685-68.915-153.651-153.6-153.651s-153.6 68.915-153.6 153.651c0 84.634 68.915 153.549 153.6 153.549zM512 601.535c84.685 0 153.6-68.915 153.6-153.549 0-84.685-68.915-153.651-153.6-153.651s-153.6 68.915-153.6 153.651c0 84.634 68.915 153.549 153.6 153.549zM870.4 601.535c84.685 0 153.6-68.915 153.6-153.549 0-84.685-68.915-153.651-153.6-153.651s-153.6 68.915-153.6 153.651c0 84.634 68.915 153.549 153.6 153.549zM153.6 546.239c-54.17 0-98.304-44.083-98.304-98.253 0-54.272 44.134-98.355 98.304-98.355s98.304 44.083 98.304 98.355c0 54.17-44.134 98.253-98.304 98.253zM512 546.239c-54.17 0-98.304-44.083-98.304-98.253 0-54.272 44.134-98.355 98.304-98.355s98.304 44.083 98.304 98.355c0 54.17-44.134 98.253-98.304 98.253zM870.4 546.239c-54.17 0-98.304-44.083-98.304-98.253 0-54.272 44.134-98.355 98.304-98.355s98.304 44.083 98.304 98.355c0 54.17-44.134 98.253-98.304 98.253z" />
<glyph unicode="&#xe016;" glyph-name="first-aid-kit-stroke" d="M658.279 852.146c40.376 0 73.162-31.933 73.162-71.321l-0.045-71.321h121.937c90.992 0 165.367-69.479 170.397-157.013l0.269-9.432v-332.89c0-91.935-76.396-166.445-170.667-166.445h-682.667c-94.271 0-170.667 74.509-170.667 166.445v332.89c0 91.935 76.396 166.445 170.667 166.445h121.892l0.045 71.321c0 37.098 29.013 67.548 66.111 71.006l7.051 0.314h292.559zM345.869 351.823l-297.14 0.045 0.045-141.743c0-62.787 49.942-114.212 113.179-118.568l8.713-0.314h682.667c67.324 0 121.892 53.221 121.892 118.883v141.743l-297.095-0.045c-9.521-25.151-33.19-43.61-61.575-46.26l-7.051-0.314h-24.387v-23.759c0-37.098-29.013-67.548-66.111-71.006l-7.051-0.314c-40.376 0-73.162 31.933-73.162 71.321v23.759h-24.387c-31.484 0-58.296 19.357-68.626 46.574zM512 495.497c-13.474 0-24.387-10.644-24.387-23.759v-71.321h-73.162c-13.474 0-24.387-10.644-24.387-23.759s10.914-23.759 24.387-23.759h73.162v-71.321c0-13.114 10.914-23.759 24.387-23.759s24.387 10.644 24.387 23.759v71.321h73.162c13.474 0 24.387 10.644 24.387 23.759s-10.914 23.759-24.387 23.759h-73.162v71.321c0 13.114-10.914 23.759-24.387 23.759zM853.333 661.942h-682.667c-67.324 0-121.892-53.221-121.892-118.883l-0.045-142.641h296.78c9.297 25.645 33.19 44.553 61.934 47.203l7.051 0.314h24.387v23.759c0 37.053 29.013 67.548 66.111 71.006l7.051 0.314c40.376 0 73.162-31.933 73.162-71.321v-23.759h24.387c31.843 0 58.925-19.851 68.985-47.517h296.735v142.641c0 62.787-49.942 114.212-113.179 118.568l-8.713 0.314zM658.279 804.583h-292.559c-13.474 0-24.387-10.644-24.387-23.759v-71.321h341.333v71.321c0 11.677-8.623 21.378-19.986 23.399l-4.401 0.404z" />
<glyph unicode="&#xe017;" glyph-name="industry-stroke" d="M646.222 870.156c-8.362 4.311-15.678 10.452-21.34 18.030-8.449 9.233-12.194 12.804-20.991 12.804s-12.543-3.571-20.991-12.804c-5.574-7.708-12.847-13.98-21.296-18.291s-17.769-6.576-27.219-6.576c-9.494 0-18.814 2.265-27.263 6.576s-15.722 10.583-21.296 18.291c-8.231 9.233-12.194 12.804-20.991 12.804s-12.543-3.571-20.991-12.804c-5.574-7.708-12.847-13.98-21.296-18.291s-17.769-6.576-27.219-6.576c-9.45 0-18.814 2.265-27.263 6.576s-15.722 10.583-21.296 18.291c-8.449 9.233-12.194 12.804-20.991 12.804v37.628c9.276-0.261 18.378-2.613 26.653-6.925s15.417-10.409 20.948-17.899c8.623-9.015 12.368-12.804 21.165-12.804s12.543 3.745 20.991 12.804c5.574 7.708 12.847 13.98 21.296 18.291s17.769 6.576 27.263 6.576c9.45 0 18.814-2.265 27.263-6.576s15.722-10.583 21.296-18.291c8.449-9.015 12.194-12.804 20.991-12.804s12.543 3.745 20.991 12.804c5.574 7.708 12.847 13.98 21.296 18.291s17.769 6.576 27.263 6.576c9.45 0 18.814-2.265 27.219-6.576s15.722-10.583 21.296-18.291c8.231-9.015 11.976-12.804 20.817-12.804l0.74-37.628c-9.407 0.174-18.64 2.526-27.045 6.837zM885.488 377.819h80.307c32.14 0 58.183-26.13 58.183-58.401v-303.764c0-32.271-26.043-58.401-58.183-58.401h-907.633c-32.14 0-58.183 26.13-58.183 58.401v303.764c0 32.271 26.043 58.401 58.183 58.401h79.697l78.652 284.34c7.012 25.303 29.919 42.766 56.049 42.766h59.882c26.13 0 49.081-17.507 56.049-42.766l78.652-284.34h43.637l93.328 421.568c5.923 26.74 29.527 45.728 56.79 45.728h74.428c27.263 0 50.867-19.032 56.79-45.728l93.328-421.568zM837.8 377.862l-91.064 411.42c-1.176 5.357-5.923 9.146-11.367 9.146h-74.428c-5.444 0-10.191-3.789-11.367-9.146l-91.064-411.42h279.289zM343.721 649.66c-1.394 5.052-6.010 8.536-11.192 8.536h-59.882c-5.226 0-9.799-3.484-11.192-8.536l-75.211-271.841h232.733l-75.211 271.841zM58.205 331.089c-6.445 0-11.628-5.226-11.628-11.671v-303.764c0-6.445 5.226-11.671 11.628-11.671h267.617v86.447c0 29.701 23.953 53.741 53.523 53.741h311.864c29.571 0 53.523-24.040 53.523-53.741v-86.447h221.105c6.445 0 11.628 5.226 11.628 11.671v303.764c0 6.445-5.226 11.671-11.628 11.671h-907.633zM232.711 120.828c0 12.891-10.409 23.387-23.256 23.387h-46.555c-12.847 0-23.256-10.452-23.256-23.387v-46.73c0-12.891 10.409-23.343 23.256-23.343h46.555c12.847 0 23.256 10.452 23.256 23.343v46.73zM209.456 284.36c12.847 0 23.256-10.452 23.256-23.343v-46.73c0-12.891-10.409-23.343-23.256-23.343h-46.555c-12.847 0-23.256 10.452-23.256 23.343v46.73c0 12.891 10.409 23.343 23.256 23.343h46.555zM884.356 261.017c0 12.891-10.409 23.343-23.256 23.343h-46.555c-12.847 0-23.256-10.452-23.256-23.343v-46.73c0-12.891 10.409-23.343 23.256-23.343h46.555c12.847 0 23.256 10.452 23.256 23.343v46.73zM861.1 144.171c12.847 0 23.256-10.452 23.256-23.387v-46.73c0-12.891-10.409-23.343-23.256-23.343h-46.555c-12.847 0-23.256 10.452-23.256 23.343v46.73c0 12.891 10.409 23.387 23.256 23.387h46.555zM721.434 261.017c0 12.891-10.409 23.343-23.256 23.343h-46.555c-12.847 0-23.256-10.452-23.256-23.343v-46.73c0-12.891 10.409-23.343 23.256-23.343h46.555c12.847 0 23.256 10.452 23.256 23.343v46.73zM535.256 284.36c12.847 0 23.256-10.452 23.256-23.343v-46.73c0-12.891-10.409-23.343-23.256-23.343h-46.555c-12.847 0-23.256 10.452-23.256 23.343v46.73c0 12.891 10.409 23.343 23.256 23.343h46.555zM347.423 723.13c-9.407 0.174-18.64 2.526-27.045 6.837s-15.678 10.452-21.34 18.030c-8.449 9.233-12.194 12.804-20.991 12.804s-12.543-3.571-20.991-12.804c-5.574-7.708-12.847-13.98-21.296-18.291s-17.769-6.576-27.219-6.576c-9.45 0-18.814 2.265-27.219 6.576s-15.722 10.583-21.296 18.291c-8.231 9.233-12.194 12.804-20.991 12.804s-12.543-3.571-20.991-12.804c-5.574-7.708-12.847-13.98-21.296-18.291s-17.769-6.576-27.219-6.576c-9.45 0-18.814 2.265-27.219 6.576s-15.722 10.583-21.296 18.291c-8.449 9.233-12.194 12.804-20.991 12.804v37.628c9.276-0.261 18.378-2.613 26.653-6.925s15.417-10.409 20.948-17.899c8.623-9.015 12.368-12.804 21.165-12.804s12.543 3.745 20.991 12.804c5.574 7.708 12.847 13.98 21.296 18.291s17.769 6.576 27.219 6.576c9.45 0 18.814-2.265 27.219-6.576s15.722-10.583 21.296-18.291c8.449-9.015 12.194-12.804 20.991-12.804s12.543 3.745 20.991 12.804c5.574 7.708 12.847 13.98 21.296 18.291s17.769 6.576 27.219 6.576c9.45 0 18.814-2.265 27.219-6.576s15.722-10.583 21.296-18.291c8.231-9.015 11.976-12.804 20.817-12.804l0.74-37.628zM379.346 97.442c-3.876 0-6.968-3.136-6.968-7.012v-86.447h325.8v86.447c0 3.876-3.136 7.012-6.968 7.012h-311.864zM372.378 284.36c12.847 0 23.256-10.452 23.256-23.343v-46.73c0-12.891-10.409-23.343-23.256-23.343h-46.555c-12.847 0-23.256 10.452-23.256 23.343v46.73c0 12.891 10.409 23.343 23.256 23.343h46.555z" />
<glyph unicode="&#xe018;" glyph-name="house-stroke" d="M525.065 881.289l3.745-2.961 487.703-467.714c9.668-9.232 9.973-24.562 0.697-34.229-8.231-8.579-21.252-9.798-30.833-3.44l-3.397 2.744-134.871 129.383 0.044-418.199c0-39.629-30.397-72.204-69.155-75.688l-6.924-0.305h-526.636c-39.629 0-72.16 30.354-75.644 69.112l-0.305 6.924-0.044 412.102-128.512-123.287c-8.579-8.231-21.644-8.884-30.92-2.134l-3.31 2.874c-8.231 8.579-8.884 21.644-2.134 30.92l2.874 3.31 487.877 467.714c8.187 7.839 20.511 8.84 29.744 2.961zM512.044 827.332l-294.129-282.022 0.044-458.482c0-13.718 10.016-25.084 23.081-27.218l4.486-0.348h144.016l0.044 275.838c0 70.636 57.223 127.859 127.903 127.859 67.805-0.131 123.2-53.042 127.38-119.803l0.261-8.057v-275.838h127.075c13.718 0 25.128 10.016 27.305 23.124l0.348 4.486-0.044 464.622-287.683 275.882zM517.357 414.533c-41.589 0-75.688-31.921-79.172-72.596l-0.305-6.837-0.044-275.838h158.692v275.838c0 43.81-35.492 79.389-79.259 79.433z" />
<glyph unicode="&#xe019;" glyph-name="group-of-three-stroke" d="M887.729 321.588c0.828 9.93 0.828 19.86 0 29.79-0.131 70.73-19.207 140.066-55.269 200.779s-87.716 110.494-149.561 144.16c7.578 18.118 12.064 37.456 13.153 57.098 0 49.128-19.425 96.296-53.962 131.007s-81.444 54.267-130.31 54.267-95.729-19.512-130.31-54.267c-34.537-34.755-53.962-81.879-53.962-131.007 0.087-16.507 2.308-32.882 6.576-48.823-66.68-31.576-123.081-81.531-162.714-144.073s-60.756-135.058-61.061-209.185c0-12.413 0-24.825 0-38.065-32.36-13.806-60.016-36.846-79.615-66.2s-30.226-63.849-30.618-99.214c-1.045-36.759 8.798-72.995 28.309-104.091s47.778-55.661 81.183-70.556c33.449-14.895 70.512-19.468 106.53-13.109s69.336 23.344 95.729 48.823c58.012-31.924 123.081-48.736 189.194-48.823 71.645-0.131 141.939 19.642 203.174 57.098 19.337-21.167 43.335-37.456 70.033-47.69s55.399-14.068 83.839-11.193c28.44 2.874 55.835 12.325 80.007 27.656s44.468 36.105 59.276 60.669c14.808 24.564 23.736 52.307 26.045 80.921s-2.003 57.446-12.63 84.101c-10.627 26.654-27.308 50.478-48.692 69.554s-46.863 32.882-74.476 40.374zM510.125 900.625c28.222 0.305 55.922-7.752 79.615-23.257s42.29-37.63 53.439-63.718 14.416-54.877 9.364-82.838c-5.096-27.917-18.249-53.744-37.891-74.171s-44.816-34.537-72.385-40.591c-27.569-6.054-56.357-3.789-82.62 6.576s-48.953 28.266-65.155 51.523c-16.202 23.257-25.174 50.826-25.827 79.223-0.218 19.033 3.31 37.935 10.409 55.574s17.595 33.71 30.923 47.255c13.327 13.545 29.18 24.303 46.645 31.619s36.236 11.106 55.138 11.106l-1.655 1.655zM292.143 47.771c-14.721-16.289-32.926-28.963-53.265-37.064s-42.246-11.411-64.066-9.669c-21.82 1.742-42.943 8.493-61.714 19.729s-34.799 26.654-46.776 45.077-19.555 39.372-22.212 61.192c-2.657 21.82-0.305 43.988 6.881 64.763s19.033 39.633 34.581 55.094c15.548 15.461 34.45 27.133 55.182 34.102 14.59 4.965 29.877 7.448 45.251 7.448 27.743 0.044 54.877-8.057 78.134-23.257s41.637-36.846 52.873-62.368c11.237-25.522 14.895-53.744 10.453-81.27s-16.724-53.178-35.365-73.822zM339.049 41.151c20.644 30.487 31.532 66.549 31.271 103.395 0 24.346-4.747 48.431-14.024 70.904s-22.822 42.9-39.938 60.103c-17.116 17.203-37.412 30.835-59.798 40.156s-46.297 14.111-70.512 14.111c-11.193 1.219-22.517 1.219-33.71 0 0 8.275 0 16.55 0 24.825 0.131 65.896 18.597 130.441 53.352 186.276s84.362 100.781 143.246 129.701c15.244-28.876 37.804-53.222 65.373-70.512s59.232-26.916 91.766-27.917c32.49-1.002 64.676 6.664 93.29 22.212s52.612 38.414 69.598 66.331c54.659-30.269 100.259-74.693 132.096-128.655s48.692-115.502 48.91-178.262c0.828-7.404 0.828-14.895 0-22.343h-13.153c-32.578-0.044-64.545-8.754-92.681-25.261s-51.392-40.243-67.463-68.727c-16.071-28.484-24.303-60.756-23.911-93.508s9.407-64.807 26.132-92.942c-51.305-30.008-109.274-46.602-168.593-48.344s-118.159 11.454-171.119 38.414zM836.729 0.603c-37.978 0-74.388 15.156-101.217 42.159s-41.941 63.587-41.941 101.783c0 38.152 15.069 74.78 41.941 101.783s63.239 42.159 101.217 42.159h27.133c35.104-6.62 66.462-26.262 87.933-54.964s31.489-64.458 28.092-100.215-19.991-68.944-46.471-93.029c-26.48-24.085-60.974-37.368-96.687-37.194v-2.483z" />
<glyph unicode="&#xe01a;" glyph-name="gradutation-cap-stroke" d="M452.061 824.607c18.222 9.179 43.079 13.587 67.664 13.178-24.584 0.409-49.396-3.999-67.618-13.178l-414.344-199.583c-29.083-14.087-33.764-34.036-33.764-44.624s4.635-29.356 33.764-44.624l33.764-16.45v-187.814c-20.949-8.225-36.081-29.356-36.081-52.85s15.132-44.624 34.9-52.804l-52.395-167.864h-0.045l52.395 167.864c-19.767 8.225-34.9 29.356-34.9 52.85s15.132 44.624 36.081 52.804v187.814l-33.764 16.45c-29.083 15.269-33.764 34.036-33.764 44.624s4.635 30.537 33.764 44.624l414.344 199.583zM503.048 58.13c-207.627 3.545-313.189 138.645-325.822 154.732-0.5 0.636-0.818 1.045-1.045 1.318-2.318 3.545-3.499 7.044-3.499 10.588v244.162h0.045v-244.162c0-3.545 1.182-7.044 3.499-10.588 0.227-0.273 0.545-0.682 1.045-1.318 12.588-16.132 118.196-151.187 325.777-154.732zM35.854 532.322l31.628-15.405v-182.724c-21.085-9.452-36.081-31.219-36.081-55.44 0-23.812 14.496-45.306 34.036-54.985l-52.94-169.682h157.322l-52.895 169.591c20.631 9.679 34.036 31.31 34.036 55.031 0 25.402-15.041 46.124-36.081 55.44v158.912l53.895-26.675v-241.708c0-4.453 1.454-8.725 4.135-12.769l0.273-0.318c0.227-0.273 0.545-0.727 1.045-1.318 12.906-16.496 122.195-156.231 337.183-156.231 216.897 0 326.186 143.325 336.456 156.776 0.273 0.409 0.5 0.636 0.636 0.818l0.182 0.273c2.681 4.044 4.135 8.316 4.135 12.769v240.572l135.146 66.982c15.132 7.316 24.175 16.359 29.447 25.13s6.544 17.132 6.544 23.039l-0.045 0.454c-0.591 5.453-1.863 13.769-6.907 22.539s-13.86 17.859-29.038 25.221l-405.028 199.538c-18.177 9.134-42.352 13.633-66.346 13.633s-48.169-4.453-66.301-13.587l-414.344-199.538c-15.132-7.316-24.221-16.359-29.447-25.13s-6.544-17.132-6.544-22.994c0-5.908 1.318-13.951 6.544-22.585s14.269-17.586 29.31-25.493zM211.126 452.479l240.936-116.196c16.723-7.862 38.717-12.497 60.984-12.906-22.267 0.364-44.306 4.999-61.029 12.906l-240.89 116.196zM504.82 94.484c2.181-0.045 4.408-0.045 6.589-0.045 181.588 0 281.698 112.697 300.284 136.191v220.668h0.045v-220.714c-18.631-23.494-118.741-136.191-300.284-136.191-2.227 0-4.453 0-6.635 0.045zM516.044 319.424c24.857 0 48.76 4.771 66.982 14.496l224.758 111.061v-212.989c-20.358-25.266-119.196-133.646-296.376-133.646s-276.017 108.38-296.376 133.646v214.216l235.392-113.561c18.086-8.498 41.943-13.269 65.664-13.269zM817.51 492.378c0.091 0.227 0.227 0.409 0.318 0.636-0.091-0.182-0.182-0.409-0.273-0.636l-252.569-123.285c-12.769-6.725-31.855-9.952-50.805-9.679 18.949-0.273 38.035 2.954 50.759 9.679l252.569 123.285zM830.143 499.421c0.045 0 0.136 0 0.182 0l139.69 69.254c9.316 4.681 12.815 10.543 12.815 10.543 0 2.363-2.318 7.044-12.815 11.724l-405.074 199.583c-11.133 5.635-28.674 9.088-46.488 9.361 17.813-0.273 35.354-3.772 46.488-9.361l405.074-199.583c10.497-4.681 12.815-9.407 12.815-11.724 0 0-3.499-5.862-12.815-10.543l-139.69-69.254c-0.091 0-0.136 0-0.227 0zM510.228 598.031c0.773 0.091 1.545 0.136 2.318 0.136-0.773 0-1.5-0.045-2.272-0.136h-0.045zM468.921 372.682l-298.648 144.416 343.908 40.671c12.588 1.409 21.176 12.724 19.722 24.357-1.409 12.678-12.633 21.313-24.13 19.904l-413.208-49.169-40.989 19.495c-4.771 2.136-7.543 4.453-9.043 6.135-0.364 0.409-0.682 0.773-0.909 1.091 0.227 0.273 0.454 0.591 0.818 0.909 1.454 1.5 4.226 3.59 9.134 5.771l414.435 200.765c12.224 5.589 29.083 9.043 46.079 9.043 18.268 0 36.263-3.499 47.169-8.998l405.165-199.629c7.134-3.181 9.407-5.953 10.134-7.316-0.364-0.454-0.818-0.954-1.409-1.59-1.772-1.772-4.635-4.181-8.861-6.316l-138.872-68.845c3.499 1.727-11.86-4.771-14.678-7.952l-251.569-122.785c-11.451-6.044-28.765-9.225-46.624-9.225s-35.491 3.181-47.578 9.27z" />
<glyph unicode="&#xe01b;" glyph-name="racket-stroke" d="M452.046 192.5l66.263 67.189 197.642-225.391c20.514-23.426 50.028-36.837 80.954-36.837 28.896 0 56.072 11.426 76.542 32.161 16.279 16.5 26.691 37.146 30.264 59.557-3.618-22.411-14.029-43.058-30.264-59.557-20.426-20.735-47.646-32.161-76.542-32.161-30.926 0-60.396 13.411-80.954 36.837l-197.642 225.391-66.263-67.189c-2.162-2.206-4.897-3.794-7.897-4.544-28.102-7.059-57.043-10.632-86.027-10.632-95.071 0-184.407 37.543-251.641 105.659-83.954 85.101-117.085 202.495-99.483 313.095-17.647-110.6 15.529-227.994 99.483-313.139 67.234-68.116 156.57-105.659 251.641-105.659 28.985 0 57.925 3.573 86.027 10.632 3 0.75 5.735 2.338 7.897 4.544zM646.467 389.613l52.587 53.337c2.162 2.206 3.706 4.985 4.456 8.029 1.676 6.794 3.132 13.676 4.368 20.602-1.235-6.926-2.691-13.808-4.368-20.602-0.75-3.044-2.294-5.823-4.456-8.029l-52.587-53.293zM104.76 794.956c-139.717-141.614-139.717-372.079 0-513.693 67.675-68.601 157.628-106.365 253.361-106.365 29.205 0 58.322 3.618 86.601 10.72 3.441 0.838 6.529 2.647 9.044 5.162l64.454 65.337 195.922-223.45c20.999-23.955 51.131-37.676 82.763-37.676 29.558 0 57.352 11.691 78.263 32.867 21.794 22.058 33.264 51.44 32.382 82.63s-14.073 59.822-37.102 80.557l-220.406 198.613 50.778 51.484c2.471 2.515 4.235 5.691 5.118 9.176 14.294 58.454 13.103 120.879-3.485 180.613-16.279 58.719-47.469 115.144-90.218 163.275-85.542 96.351-210.921 106.674-260.641 106.674-15.794 0-25.676-1.015-26.382-1.059-83.071-7.72-161.378-44.955-220.45-104.865zM334.872 212.529l343.624 348.344c0.044-0.662 0.132-1.368 0.176-2.029 0.044-0.397 0.044-0.794 0.088-1.191 1.765-23.514 0.882-47.116-2.647-70.586 3.706 24.529 4.456 49.234 2.382 73.807l-343.668-348.388c0 0 0 0 0.044 0zM430.252 222.455c-23.602-5.515-47.822-8.294-72.131-8.294-5.956 0-11.867 0.176-17.779 0.485l336.168 340.8c2.029-30.176-0.221-60.528-7.015-90.395l-239.244-242.553zM132.157 767.162c52.675 53.425 122.512 86.601 196.804 93.527h0.044c0.132 0 8.603 0.882 22.544 0.882 44.867 0 156.834-9.22 231.832-93.659 43.984-49.543 73.101-105.836 86.071-164.114l-369.564-374.638c-2.471-2.515-4.147-5.559-4.985-8.735-61.278 12.397-117.571 42.793-162.746 88.586-124.585 126.306-124.585 331.845 0 458.15zM672.143 603.093c-12.926 59.16-42.352 116.291-86.954 166.496-75.704 85.277-188.642 94.498-233.641 94.498-14.161 0-22.72-0.882-22.808-0.882-74.866-6.97-145.232-40.411-198.304-94.233-49.587-50.249-79.586-112.982-89.998-178.319 10.412 65.337 40.411 128.070 89.998 178.363 53.072 53.822 123.438 87.263 198.304 94.233 0.088 0 8.691 0.882 22.808 0.882 45.043 0 157.937-9.22 233.641-94.498 44.602-50.205 74.028-107.38 86.954-166.496v0zM296.844 217.603c0.044 0.176 0.044 0.353 0.088 0.485-0.044-0.176-0.044-0.353-0.088-0.485 0 0 0 0 0 0zM868.815 109.341c0.574-20.294-6.882-39.352-21.044-53.69-13.588-13.764-31.632-21.352-50.866-21.352-20.558 0-40.146 8.912-53.778 24.485l-132.967 151.673 84.924 86.115 149.599-134.82c14.956-13.5 23.514-32.073 24.132-52.366zM870.27 94.826c0.75 4.765 1.103 9.662 0.926 14.603-0.618 20.955-9.485 40.19-24.926 54.131v0c15.485-13.941 24.308-33.176 24.926-54.131 0.132-4.941-0.176-9.838-0.971-14.603zM584.351 239.837l-38.69 44.117 76.895 77.954 43.499-39.22-81.704-82.851zM542.352 284.042v0zM791.567 554.609c0-64.984 52.146-117.791 116.203-117.791s116.203 52.852 116.203 117.791c0 64.984-52.146 117.791-116.203 117.791s-116.203-52.852-116.203-117.791zM830.301 554.609c0 43.322 34.764 78.527 77.469 78.527s77.469-35.249 77.469-78.527c0-43.322-34.764-78.527-77.469-78.527s-77.469 35.249-77.469 78.527zM793.993 554.609c0 5.691 0.397 11.294 1.191 16.764-0.794-5.47-1.191-11.029-1.191-16.72 0-63.616 51.043-115.365 113.777-115.365 55.852 0 102.483 41.028 112.012 94.939-9.529-53.91-56.116-94.939-112.012-94.939-62.734 0-113.777 51.749-113.777 115.365zM829.198 569.167c6.794 37.764 39.44 66.44 78.616 66.44 44.072 0 79.895-36.352 79.895-80.998 0-4.015-0.309-7.985-0.838-11.867 0.574 3.838 0.838 7.809 0.838 11.823 0 44.646-35.823 80.998-79.895 80.998-39.131 0-71.822-28.676-78.616-66.44z" />
<glyph unicode="&#xe01c;" glyph-name="crossed-out-eye-stroke" d="M1017.212 448.1c-50.711 64.286-132.368 134.225-230.861 184.771l-43.407-48.525c79.429-38.58 153.083-94.118 210.272-156.094-33.876-36.723-115.657-115.863-230.366-166.699 67.422 92.262 70.558 216.956 11.677 313.426l-42.293-47.286c15.267-29.791 24.386-63.46 24.386-99.482 0-117.432-91.767-212.995-204.577-212.995-29.502 0-57.312 6.973-82.648 18.732l-55.993-62.636c44.851-11.759 91.354-18.816 138.641-18.816 219.926 0 416.169 142.89 505.17 255.825 9.078 11.594 9.078 28.223 0 39.777zM498.714 311.399c4.457-0.495 8.789-1.362 13.328-1.362 65.194 0 118.174 53.022 118.174 118.174 0 9.119-1.237 17.908-3.218 26.491l-128.243-143.345zM182.563 54.955c0.289 0.619 0.619 1.237 1.072 1.774l668.816 747.502c9.036 12.915 7.715 30.616-4.332 41.345-12.915 11.636-32.844 10.48-44.481-2.476l-143.675-160.591c-47.574 13.328-97.173 21.374-147.924 21.374-215.841 0-412.91-138.681-505.212-255.825-9.078-11.554-9.078-28.182 0-39.736 53.022-67.215 137.857-138.434 239.030-188.65l-111.778-124.941c-11.594-12.956-10.522-32.886 2.476-44.521 5.983-5.364 13.493-8.005 21.002-8.005 8.624 0 17.248 3.548 23.478 10.48l0.784 0.867c0.289 0.454 0.537 0.907 0.784 1.362zM512 641.207c32.597 0 63.007-8.789 90.365-23.024l-66.432-74.272c-7.715 1.609-15.721 2.476-23.891 2.476-65.153 0-118.174-52.98-118.174-118.174 0-12.626 2.681-24.552 6.478-35.939l-64.369-71.879c-18.032 31.648-28.554 68.413-28.554 107.818 0 117.432 91.809 212.995 204.619 212.995zM70.785 428.212c33.876 36.723 115.657 115.822 230.366 166.658-69.238-94.738-71.219-224.011-7.262-321.431l-4.951-5.571c-82.524 38.662-159.106 96.306-218.152 160.345z" />
<glyph unicode="&#xe01d;" glyph-name="eye-stroke" d="M1018.001 467.998c-94.014 118.013-290.008 255.993-506.001 255.993s-411.989-139.995-506.001-255.993c-7.999-12.001-7.999-28.001 0-39.997 95.998-119.997 294.007-255.993 506.001-255.993 219.995 0 415.987 143.994 506.001 255.993 7.999 12.001 7.999 28.001 0 39.997zM715.995 447.999c0-118.013-91.996-211.993-203.995-211.993s-203.995 94.014-203.995 211.993c0 118.013 91.996 211.993 203.995 211.993s203.995-94.014 203.995-211.993zM70.030 447.999c34.014 35.999 115.998 115.998 231.993 166.012-71.997-98.014-71.997-234.011 0-331.989-87.997 38.013-170.011 98.014-231.993 166.012zM722.008 281.987c71.997 98.014 71.997 234.011 0 331.989 87.997-38.013 170.011-98.014 231.993-166.012-34.014-35.999-115.998-115.998-231.993-166.012zM394.018 447.999c0-66.014 51.998-118.013 118.013-118.013s118.013 51.998 118.013 118.013c0 66.014-51.998 118.013-118.013 118.013s-118.013-51.998-118.013-118.013zM590.015 487.996c0-22.015-16-39.997-38.013-39.997s-39.997 18.015-39.997 39.997c0 22.015 18.015 38.013 39.997 38.013s38.013-16 38.013-38.013z" />
<glyph unicode="&#xe01e;" glyph-name="people-stroke" d="M961.758 285.41c-25.272 21.968-54.25 37.595-74.699 47.106 26.745 40.408 43.31 91.443 43.31 136.048 0 89.255-68.18 161.811-151.943 161.811-21.611 0-42.641-5.001-62.063-14.199-0.045 118.947-90.818 215.748-202.398 215.748-111.625 0-202.442-96.846-202.442-215.882 0-0.536 0.045-1.072 0.045-1.607-20.36 10.403-42.819 15.985-65.814 15.985-83.808 0-151.943-72.601-151.943-161.856 0-44.605 16.565-95.64 43.266-136.048-20.45-9.51-49.427-25.138-74.699-47.106-54.205-47.061-62.331-145.648-62.331-200.21 0-11.743 9.287-21.253 20.762-21.253h982.475c11.475 0 20.762 9.51 20.762 21.253 0.045 54.562-7.992 153.149-62.242 200.21zM888.8 468.563c0-59.563-40.096-140.245-88.183-160.427-10.314 18.306-22.727 34.782-37.997 48.043-38.22 33.175-82.647 55.812-110.374 68.046 28.665 41.078 48.981 90.952 58.268 138.057 19.378 16.386 43.087 25.629 67.823 25.629 60.902 0 110.464-53.535 110.464-119.349zM513.92 789.462c88.719 0 160.918-77.825 160.918-173.42 0-103.543-78.048-237.135-160.918-237.135s-160.918 133.548-160.918 237.135c0 95.595 72.199 173.42 160.918 173.42zM245.753 587.912c26.522 0 52.151-10.359 72.199-29.112 9.555-46.079 29.603-94.568 57.554-134.619-27.728-12.234-72.154-34.872-110.374-68.046-15.627-13.529-28.263-30.541-38.711-49.383-49.383 17.994-91.175 100.953-91.175 161.766 0 65.814 49.561 119.349 110.464 119.349zM89.21 252.994c26.477 22.95 58.447 38.22 75.458 45.409 13.484-13.306 28.487-23.53 44.471-30.049-19.646-53.937-25.808-115.286-27.102-161.945h-140.022c2.902 69.073 20.092 123.055 47.195 146.585zM778.381 106.408h-554.819c2.947 103.275 27.549 181.859 68.493 217.356 39.828 34.604 88.943 57.063 111.401 66.305 31.21-32.282 68.716-53.624 110.464-53.624s79.253 21.298 110.508 53.624c22.459-9.198 71.529-31.657 111.401-66.305 40.944-35.541 65.546-114.080 68.493-217.356h-25.942zM845.758 106.408c-1.339 47.016-7.546 109.035-27.594 163.285 14.779 6.519 28.621 16.342 41.256 28.71 16.967-7.189 48.981-22.459 75.414-45.409 27.147-23.53 44.337-77.512 47.24-146.585h-136.316z" />
<glyph unicode="&#xe01f;" glyph-name="water-drop-stroke" d="M514.004 959.786c2.921-0.25 5.801-1.169 8.389-2.671s4.883-3.547 6.719-6.052c126.001-175.125 316.735-433.804 316.735-666.066 0-196.911-150.458-349.039-333.889-349.039s-333.889 152.087-333.889 349.039c0 232.219 190.693 490.941 316.735 666.066 2.254 3.089 5.217 5.51 8.556 7.053s7.012 2.129 10.643 1.711zM512 897.974c-124.833-174.247-290.817-417.987-290.817-612.978 0-171.451 129.215-302.504 290.817-302.504s290.817 131.010 290.817 302.504c0 194.991-165.984 438.729-290.817 612.978zM708.243 308.62c5.342-0.626 10.309-3.422 13.856-7.804s5.467-10.017 5.342-15.86c0-128.214-96.702-232.679-215.401-232.679-2.839-0.041-5.676 0.501-8.347 1.67s-5.050 2.839-7.096 5.008c-2.045 2.17-3.672 4.758-4.758 7.596s-1.67 5.885-1.67 8.973c0 3.089 0.584 6.136 1.67 8.973s2.712 5.426 4.758 7.596c2.045 2.17 4.466 3.881 7.096 5.008s5.51 1.711 8.347 1.67c95.409 0 172.328 83.055 172.328 186.143-0.084 3.297 0.501 6.595 1.711 9.64s3.005 5.801 5.258 8.013c2.254 2.254 4.925 3.923 7.847 4.967s6.009 1.377 9.057 1.001z" />
<glyph unicode="&#xe020;" glyph-name="umbrella-stroke" d="M538.531 871.033v62.371c0 7.036-2.797 13.785-7.769 18.76-4.976 4.976-11.725 7.771-18.762 7.771s-13.786-2.795-18.758-7.771c-4.976-4.976-7.773-11.725-7.773-18.76v-62.371c-131.058-6.8-254.505-63.667-344.845-158.859-90.341-95.19-140.679-221.441-140.623-352.675 0.12-7.001 2.954-13.68 7.902-18.627 4.95-4.953 11.629-7.782 18.629-7.904 19.713 0.503 39.044 5.553 56.483 14.755 17.44 9.207 32.517 22.315 44.055 38.307 19.084 20.48 32.581 35.374 61.44 35.374 10.085-0.172 20.003-2.606 29.025-7.117s16.917-10.984 23.107-18.949l8.843-9.31c18.086-20.89 41.133-36.896 67.025-46.545 28.323-8.276 58.722-5.618 85.178 7.447l7.913 4.189c15.229 10.199 29.007 22.411 40.959 36.305l14.895 13.964c5.618 5.47 12.056 10.025 19.084 13.499v-364.45c0 0 0 0 0-2.793 2.183-29.165 15.397-56.408 36.957-76.171 21.56-19.767 49.841-30.571 79.089-30.213 29.245 0.353 57.255 11.846 78.331 32.13 21.071 20.28 33.62 47.835 35.090 77.047 0 7.038-2.797 13.786-7.769 18.762-4.976 4.97-11.725 7.769-18.762 7.769s-13.786-2.797-18.758-7.769c-4.976-4.976-7.773-11.725-7.773-18.762-1.34-15.43-8.42-29.798-19.838-40.267s-26.344-16.276-41.835-16.276c-15.491 0-30.417 5.809-41.835 16.276s-18.498 24.837-19.838 40.267v364.915l5.585-2.793c10.799-7.819 20.639-16.882 29.324-26.996 19.721-25.549 47.681-43.474 79.128-50.734 15.626-2.825 31.66-2.509 47.16 0.926 15.505 3.435 30.17 9.923 43.139 19.088 11.688 8.988 22.45 19.121 32.116 30.255 19.084 20.945 33.048 35.84 61.44 35.84s42.356-14.895 61.44-35.84c11.636-15.854 26.745-28.835 44.172-37.953 17.427-9.113 36.706-14.126 56.366-14.643 7.080 0.121 13.829 3.020 18.791 8.071s7.74 11.846 7.74 18.926c0.056 131.235-50.283 257.484-140.623 352.675s-213.788 152.059-344.845 158.859zM309.528 401.39c-7.396 6.232-14.247 13.084-20.48 20.48-11.54 15.844-26.565 28.826-43.914 37.943s-36.563 14.131-56.159 14.652c-19.66-0.517-38.94-5.53-56.366-14.643-17.426-9.119-32.535-22.1-44.172-37.953-9.357-11.669-20.703-21.597-33.513-29.324 7.428 102.139 48.803 198.86 117.545 274.771 68.741 75.908 160.894 126.646 261.8 144.138-53.062-62.836-117.759-184.785-124.741-410.065zM612.538 421.869c-11.585 15.904-26.685 28.923-44.12 38.047-17.441 9.123-36.743 14.103-56.418 14.55-19.661-0.517-38.94-5.53-56.366-14.643-17.427-9.119-32.535-22.1-44.172-37.953l-13.032-13.499c-9.286-10.538-21.667-17.873-35.374-20.945 0 6.050 0 12.102 0 18.153 9.31 275.083 113.57 379.81 148.946 407.273 36.305-27.927 142.429-134.982 148.946-425.425-19.661 5.483-36.78 17.669-48.408 34.444zM938.355 421.869c-11.273 16.226-26.303 29.482-43.808 38.637-17.51 9.155-36.971 13.94-56.73 13.94s-39.219-4.785-56.73-13.94c-17.506-9.155-32.535-22.411-43.808-38.637-6.353-7.285-13.196-14.126-20.48-20.48-6.982 225.279-71.679 347.229-124.276 409.599 100.906-17.491 193.061-68.228 261.799-144.138 68.744-75.911 110.118-172.632 117.545-274.771-13.792 7.475-25.972 17.599-35.84 29.789h2.328z" />
<glyph unicode="&#xe021;" glyph-name="two-pages-stroke" d="M99.468 128.74h160.798v-162.805c0-16.582 13.265-29.978 29.629-29.978h634.682c16.363 0 29.629 13.44 29.629 29.978v771.174c0 16.582-13.265 30.021-29.629 30.021h-160.798v162.805c0 16.582-13.265 30.021-29.629 30.021h-634.682c-16.363 0-29.629-13.44-29.629-30.021v-771.174c0-16.582 13.265-29.978 29.629-29.978zM894.904 707.131v-711.175h-575.425v162.281c0 0.175 0.044 0.349 0.044 0.524s-0.044 0.349-0.044 0.524v547.89h575.425zM129.096 899.914h575.425v-132.784h-414.67c-16.363 0-29.629-13.44-29.629-30.021v-548.37h-131.169v711.175z" />
<glyph unicode="&#xe022;" glyph-name="tv-stroke" d="M561.766 696.071h418.217c24.037 0 43.648-19.264 43.995-43.301v-672.861c0-24.297-19.698-43.952-44.039-43.952h-935.922c-24.297 0-44.039 19.698-44.039 43.952v672.21c0 24.297 19.698 43.952 44.039 43.952h418.217l-202.492 224.229c-0.607 0.607-1.215 1.258-1.736 1.909-7.593 9.459-6.118 23.299 3.384 30.892s23.343 6.074 30.936-3.384l220.107-241.801 220.107 241.801c1.432 2.256 3.297 4.209 5.423 5.814 9.762 7.246 23.56 5.207 30.805-4.512s5.25-23.516-4.512-30.762l-202.492-224.229zM46.49-19.44h933.493l0.868 672.21h-934.36v-672.21zM204.943 606.388h628.171c24.297 0 44.039-19.698 44.039-43.952v-492.15c0-24.297-19.698-43.952-44.039-43.952h-627.477c-24.297 0-44.039 19.698-44.039 43.952v492.15c0 24.037 19.308 43.605 43.345 43.952zM205.377 71.154h627.043l0.651 491.282h-627.694v-491.282z" />
<glyph unicode="&#xe023;" glyph-name="lens-stroke" d="M415.98 855.746c138.93 138.894 364.954 138.894 503.848 0s138.894-364.954 0-503.848c-58.372-58.372-135.203-94.662-217.386-102.676s-164.553 12.811-233.076 58.852l-40.613-40.613c2.216-8.936 2.105-18.311-0.369-27.209s-7.162-16.983-13.66-23.518l-253.051-253.051c-17.758-17.758-41.831-27.727-66.973-27.727-12.441 0-24.737 2.438-36.256 7.199s-21.93 11.74-30.717 20.528c-8.788 8.788-15.766 19.236-20.528 30.717s-7.199 23.815-7.199 36.256c0 25.106 9.969 49.215 27.727 66.973l253.051 253.051c6.536 6.498 14.62 11.187 23.518 13.66s18.238 2.584 27.209 0.369l40.613 40.613c-45.928 68.561-66.641 150.931-58.665 233.076s44.194 158.978 102.49 217.386zM136.457-11.102l253.051 253.086c3.397 3.397 5.317 8.011 5.317 12.811s-1.92 9.416-5.317 12.811l-57.781 57.816c-3.397 3.397-8.011 5.317-12.811 5.317s-9.416-1.92-12.811-5.317l-253.051-253.051c-10.856-11.112-16.909-26.028-16.799-41.573s6.312-30.386 17.279-41.387c10.966-10.966 25.845-17.206 41.387-17.279s30.458 5.944 41.573 16.799zM362.482 345.066l46.704-46.742 31.308 31.271c-8.639 7.162-16.909 14.695-24.44 22.263s-14.989 15.766-22.263 24.478l-31.271-31.271zM441.233 377.076c125.012-124.975 328.367-124.975 453.38 0l0.038 0.038c125.012 125.012 124.937 328.367-0.038 453.342s-328.367 124.975-453.38 0c-60.438-60.438-93.74-140.962-93.74-226.689s33.303-166.214 93.74-226.689zM777.058 867.338c34.595-14.326 66.051-35.334 92.521-61.842 39.911-39.874 67.046-90.677 78.085-146.018s5.352-112.68-16.208-164.774c-21.598-52.132-58.15-96.658-105.038-128.003s-102.048-48.034-158.462-48.034h-0.073c-37.475-0.111-74.58 7.199-109.172 21.488s-66.051 35.369-92.485 61.915c-111.203 111.24-111.203 292.187 0 403.427 26.471 26.471 57.927 47.516 92.521 61.842s71.7 21.709 109.137 21.709c37.475 0 74.542-7.384 109.172-21.709zM491.408 427.362c97.359-97.285 255.672-97.285 352.955 0 34.889 34.889 58.665 79.379 68.302 127.779s4.689 98.578-14.215 144.174c-18.903 45.596-50.876 84.583-91.893 111.979s-89.272 42.053-138.635 42.053c-49.363 0-97.618-14.62-138.635-42.053s-73.029-66.383-91.893-111.979c-18.903-45.596-23.85-95.771-14.215-144.174s33.376-92.891 68.302-127.779zM757.677 543.955c-2.068 1.070-4.357 1.736-6.682 1.958s-4.689-0.073-6.904-0.777l-125.234-39.578c-4.061-1.292-7.531-3.988-9.784-7.642s-3.101-7.938-2.438-12.147c0.663-4.209 2.807-8.049 6.056-10.818s7.384-4.282 11.63-4.282c1.809 0 3.656 0.297 5.39 0.849l125.234 39.543c3.36 1.070 6.35 3.101 8.529 5.87s3.544 6.091 3.84 9.637c0.297 3.508-0.442 7.051-2.141 10.152s-4.282 5.611-7.42 7.237h-0.073zM656.737 451.432l87.317 27.579c4.468 1.329 9.304 0.812 13.401-1.367s7.199-5.908 8.602-10.376c1.402-4.468 0.998-9.268-1.108-13.439s-5.76-7.348-10.19-8.824l-87.317-27.579c-1.736-0.553-3.544-0.849-5.39-0.849-4.247 0-8.38 1.55-11.592 4.32s-5.352 6.609-6.018 10.818 0.221 8.491 2.473 12.147c2.251 3.619 5.722 6.312 9.784 7.607z" />
<glyph unicode="&#xe024;" glyph-name="triangle-exclamation-mark-stroke" d="M512 906.069c-30.882 0-58.948-15.856-74.762-43.3l-425.554-740.498c-15.813-27.528-15.483-61.266 0.331-88.753 14.157-24.589 40.693-43.757 71.616-43.673h856.698c30.923-0.124 57.458 19.084 71.616 43.673 15.856 27.487 16.144 61.225 0.331 88.753l-425.554 740.498c-15.813 27.446-43.88 43.3-74.762 43.3v0zM512 837.351c6.292 0 14.571-4.76 17.387-9.686l425.223-740.498c2.814-4.885 2.814-13.744 0-18.629-4.512-7.823-7.948-10.018-14.24-10.018h-856.698c-6.292 0-9.77 2.194-14.24 10.018-2.814 4.885-2.814 13.702 0 18.629l425.223 740.498c2.814 4.885 11.094 9.686 17.387 9.686h0.041zM512 631.197c-18.421 0-33.365-15.399-33.365-34.359v-320.698c0-18.96 14.944-34.359 33.365-34.359s33.365 15.399 33.365 34.359v320.698c0 18.96-14.944 34.359-33.365 34.359zM512 218.847c-24.589 0-44.502-20.492-44.502-45.826s19.911-45.826 44.502-45.826c24.589 0 44.502 20.492 44.502 45.826s-19.911 45.826-44.502 45.826z" />
<glyph unicode="&#xe025;" glyph-name="pig-piggy-bank-coin-stroke" d="M435.591 43.703h210.826v-46.331c0-6.967 4.633-11.6 11.6-11.6h143.629c6.967 0 11.6 4.633 11.6 11.6v108.898l16.233 16.233c30.133 27.799 53.301 57.934 71.833 94.999l2.334 4.633 81.099 55.597c2.334 2.334 4.633 4.633 4.633 9.266v171.427c0 6.967-4.633 11.6-11.6 11.6h-76.466l-4.633 9.266c-13.899 25.5-30.133 50.964-50.964 71.833l-6.967 6.967 32.432 129.729c0 2.334 0 6.967-2.334 9.266s-4.633 4.633-9.266 4.633h-85.733c-39.4 0-78.763-20.867-101.929-50.964l-4.633-6.967h-213.125c-132.063 0-252.525-90.366-289.591-217.758l-2.334-9.266-9.266-2.334c-23.165-4.633-44.033 0-60.23 11.6-20.867 13.899-34.767 37.065-34.767 62.567v27.799c0 6.967-4.633 11.6-11.6 11.6-4.633 0-11.6-4.633-11.6-11.6v-27.799c0-32.432 18.532-62.567 44.033-81.099 18.532-11.6 37.065-16.233 55.597-16.233h20.867v-20.867c0-6.967-2.334-16.233-2.334-25.5 0-34.767 6.967-67.2 18.532-99.632 16.233-50.964 48.668-97.296 92.662-132.063l4.633-4.633v-111.196c0-6.967 4.633-11.6 11.6-11.6h145.963c4.633 0 9.266 4.633 9.266 11.6zM801.609-51.296h-143.629c-25.5 0-48.668 20.867-48.668 48.668v11.6h-136.697v-11.6c0-27.799-20.867-48.668-46.331-48.668h-145.963c-25.5 0-46.331 20.867-46.331 48.668v94.999c-44.033 37.065-76.466 85.733-97.296 141.33-11.6 34.767-18.532 71.833-18.532 111.196 0 2.334 0 6.967 0 11.6-20.867 2.334-41.698 9.266-57.934 20.867-37.065 25.5-60.23 67.2-60.23 111.196v27.799c0 25.5 20.867 46.331 46.331 46.331s48.668-20.867 48.668-46.331v-27.799c0-13.899 4.633-25.5 16.233-32.432 6.967-4.633 16.233-6.967 23.165-6.967 46.331 134.362 176.060 229.358 319.687 229.358h194.593c30.133 37.065 76.466 57.934 125.096 57.934h85.733c13.899 0 27.799-6.967 37.065-18.532s11.6-25.5 9.266-39.4l-27.799-111.196c16.233-18.532 32.432-39.4 44.033-60.23h55.597c25.5 0 46.331-23.165 46.331-48.668v-171.427c0-16.233-6.967-30.133-20.867-39.4l-71.833-50.964c-18.532-37.065-44.033-71.833-76.466-99.632l-6.967-6.967v-92.662c0-27.799-20.867-48.668-46.331-48.668zM639.449 523.215h-268.722c-9.266 0-18.532 6.967-18.532 18.532 0 9.266 9.266 16.233 18.532 16.233h268.722c9.266 0 16.233-6.967 16.233-16.233 0-11.6-6.967-18.532-16.233-18.532zM831.705 428.255c0-18.532-13.899-32.432-32.432-32.432s-32.432 13.899-32.432 32.432c0 18.532 13.899 34.767 32.432 34.767s32.432-16.233 32.432-34.767zM505.087 910.101c-44.033 0-76.466-32.432-76.466-76.466 0-41.698 32.432-76.466 76.466-76.466 41.698 0 76.466 34.767 76.466 76.466 0 44.033-34.767 76.466-76.466 76.466zM505.087 722.441c-62.567 0-113.531 50.964-113.531 111.196 0 62.567 50.964 113.531 113.531 113.531 60.23 0 111.196-50.964 111.196-113.531 0-60.23-50.964-111.196-111.196-111.196z" />
<glyph unicode="&#xe026;" glyph-name="subcategory-stroke" d="M184.008 959.935h58.014v-853.991h-58.014zM895.989 49.946v-58.014h-597.996v58.014zM128.011 105.944h170.009v-170.009h-170.009z" />
<glyph unicode="&#xe027;" glyph-name="certificate-stroke" d="M632.013 154.273v122.271c-27.849 28.989-44.953 68.372-44.953 111.746 0 89.116 72.275 161.391 161.391 161.391s161.391-72.275 161.391-161.391c0-44.339-17.849-84.467-46.795-113.632l0.132-120.385h118.675v753.275h-939.796v-753.275h589.911zM632.013 112.171h-632.013v837.479h1024v-837.479h-160.733l0.175-165.952-115.386 138.498-116.044-138.016v165.47zM888.791 715.765v46.795h-748.495v-46.795h748.495zM629.162 388.29c0-47.145 27.366-87.932 67.1-107.272 17.236-6.359 34.471-9.648 52.189-9.648 10.876 0 22.191 0.746 33.111 2.324 49.777 14.341 86.178 60.259 86.178 114.64 0 65.872-53.417 119.289-119.289 119.289s-119.289-53.417-119.289-119.289zM748.451 226.899c-24.647 0-47.979 5.526-68.854 15.394-1.842 0.702-3.684 1.403-5.482 2.193v-182.267l74.073 88.107 73.021-87.625-0.219 176.653c-9.955-3.070-20.305-5.307-30.612-6.885-13.376-3.596-27.41-5.526-41.927-5.526zM233.885 622.176v46.795h561.36v-46.795h-561.36zM327.431 294.745h-187.135v-46.795h187.135v46.795z" />
<glyph unicode="&#xe028;" glyph-name="wrench-stroke" d="M998.451 791.428c-5.637 14.459-17.816 24.959-32.576 28.058-15.105 3.184-30.898-1.678-42.216-12.996l-105.604-105.604-51.597 51.554 112.36 112.36c11.705 11.705 16.697 27.972 13.426 43.55-3.228 15.234-14.029 27.8-28.962 33.566-98.030 38.085-209.444 14.631-283.806-59.73-39.16-39.16-64.722-88.606-73.932-143-1.98-9.252-3.873-19.064-5.896-29.478-11.791-60.72-26.509-136.287-69.585-179.364l-385.881-385.881c-47.638-47.638-47.638-125.184 0-172.823 23.841-23.841 55.126-35.718 86.411-35.718s62.571 11.92 86.411 35.718l385.881 385.881c43.12 43.12 118.643 57.794 179.364 69.585 10.414 2.023 20.226 3.916 29.478 5.896 54.394 9.252 103.84 34.814 143 73.932 11.533 11.576 14.89 27.24 10.113 41.183 52.415 69.456 65.454 161.333 33.652 243.225zM951.931 778.217c1.764 1.764 3.83 2.539 5.68 2.152 1.592-0.344 2.797-1.463 3.529-3.4 25.562-65.841 16.74-139.299-22.55-196.706l-92.307 92.307 105.604 105.604zM926.37 535.293c-33.351-33.351-75.438-55.083-121.785-62.872-0.301-0.043-0.602-0.086-0.861-0.172-9.037-1.937-18.806-3.83-29.177-5.853-66.056-12.867-148.25-28.832-200.020-80.602l-385.881-385.881c-32.060-32.060-84.217-32.060-116.277 0s-32.060 84.217 0 116.277l385.881 385.881c51.726 51.726 67.735 133.963 80.602 200.020 2.023 10.371 3.916 20.14 5.853 29.177 0.043 0.301 0.129 0.559 0.172 0.861 7.789 46.304 29.521 88.434 62.872 121.785 43.077 43.077 100.741 66.013 159.482 66.013 27.412 0 55.083-4.992 81.548-15.277 2.41-0.947 3.873-2.453 4.303-4.562 0.516-2.324-0.43-4.906-2.582-7.057l-126.475-126.475c-7.832-7.789-7.832-20.484 0-28.273l202.473-202.473c0.086-0.086 0.129-0.129 0.172-0.215-0.086-0.086-0.172-0.215-0.301-0.344zM695.71 710.009c-3.744 3.744-8.822 5.853-14.158 5.853s-10.414-2.109-14.158-5.853l-56.546-56.546c-7.832-7.789-7.832-20.484 0-28.273l79.87-79.87c3.744-3.744 8.822-5.853 14.158-5.853s10.414 2.109 14.158 5.853l56.546 56.546c7.789 7.789 7.789 20.484 0 28.273l-79.87 79.87zM704.876 587.751l-51.554 51.597 28.273 28.273 51.554-51.554-28.273-28.273zM144.666 72.253c-7.832 7.832-20.484 7.789-28.273 0s-7.789-20.484 0-28.273c3.916-3.916 9.037-5.853 14.158-5.853s10.242 1.937 14.158 5.853c7.789 7.832 7.789 20.484 0 28.273v0zM502.274 458.091l-322.235-322.235c-7.789-7.789-7.789-20.484 0-28.273 3.916-3.916 9.037-5.853 14.158-5.853s10.242 1.937 14.158 5.853l322.235 322.235c7.789 7.789 7.789 20.484 0 28.273s-20.484 7.789-28.273 0z" />
<glyph unicode="&#xe029;" glyph-name="store-stroke" d="M926.999 959.89c9.283 0 17.49-5.92 20.45-14.709l75.475-226.38c0.673-2.018 1.031-4.126 1.076-6.278v-38.253c-0.135-53.994-25.696-104.804-68.972-137.092l-6.503-4.843v-499.398c0-53.545-43.41-97.001-97.001-97.001h-679.094c-53.545 0-97.001 43.41-97.001 97.001v499.398l-6.503 4.843c-43.276 32.334-68.838 83.143-68.927 137.137v38.702c0.045 1.659 0.448 3.767 1.121 5.83l75.43 226.335c2.915 8.79 11.167 14.754 20.45 14.754h829.999zM738.559 544.263l-9.776-7.175c-58.703-43.096-137.586-45.159-198.217-6.144l-8.969 6.144-9.597 7.041-9.597-7.041c-58.703-43.096-137.586-45.159-198.217-6.144l-8.969 6.144-9.776 7.175-9.642-7.399c-36.145-27.714-81.798-39.688-126.599-33.544l-11.167 1.928-19.463 3.991v-476.348c0-27.804 21.032-50.675 48.029-53.59l5.875-0.314h204.809v355.759c0 10.584 7.624 19.373 17.669 21.167l3.857 0.359h226.38c10.584 0 19.373-7.624 21.167-17.669l0.359-3.857v-355.759h204.809c27.804 0 50.675 21.032 53.59 48.029l0.314 5.875v476.348l-19.463-3.991c-44.621-9.148-90.902-0.045-128.572 25.024l-9.238 6.592-9.642 7.399zM603.664 313.175h-183.283v-334.188h183.283v334.188zM980.904 690.459h-937.852v-16.189c0-71.439 57.94-129.379 129.379-129.379 37.356 0 72.874 16.413 97.090 44.845-0.045-0.090-0.045-0.090 0.448 0.404 9.148 8.61 23.589 8.207 32.244-0.987 2.915-3.229 6.278-6.592 9.821-9.776 51.169-45.832 128.572-43.679 177.139 3.363l6.458 6.682 0.718 0.673c9.148 8.61 23.589 8.207 32.244-0.987 2.915-3.229 6.278-6.592 9.821-9.776 53.501-47.94 135.702-43.41 183.597 10.090 0.762 0.897 1.435 1.57 2.197 2.197 8.969 7.848 22.557 6.906 30.405-2.063 24.127-28.297 59.6-44.666 96.956-44.711 68.613 0 124.715 53.366 129.11 120.858l0.269 8.521v16.189zM264.095 916.794h-151.577l-61.124-183.283h212.702v183.283zM911.483 916.794h-151.577v-183.283h212.702l-61.124 183.283zM716.809 916.794h-183.283v-183.283h183.283v183.283zM490.474 916.794h-183.283v-183.283h183.283v183.283z" />
<glyph unicode="&#xe02a;" glyph-name="bills-stroke" d="M1017.030 702.785l6.97-586.132h-18.532l-887.298-2.335v588.432zM152.938 668.017v-518.931h185.332l648.663 2.335-4.635 516.632zM34.768 746.784v-495.764h-34.768v530.532h688.066v-34.768zM711.233 408.553c0 78.767-62.57 141.333-141.333 141.333s-141.333-62.57-141.333-141.333c0-78.767 62.57-141.333 141.333-141.333s141.333 62.57 141.333 141.333zM746.001 408.553c0-97.299-78.767-176.066-176.066-176.066s-173.768 78.767-173.768 176.066c0 97.299 76.467 173.768 173.768 173.768s176.066-76.467 176.066-173.768zM215.468 232.486v34.768c30.135 0 55.6-25.502 55.6-55.6h-34.768c0 11.601-9.266 20.867-20.867 20.867zM236.336 605.486h34.768c0-30.135-25.502-55.6-55.6-55.6v34.768c11.601 0 20.867 9.266 20.867 20.867zM926.701 584.619v-34.768c-32.433 0-57.935 25.502-57.935 55.6h34.768c0-11.601 11.601-20.867 23.167-20.867zM903.534 193.12h-34.768c0 32.433 25.502 57.935 57.935 57.935v-37.068c-11.601 0-23.167-9.266-23.167-20.867z" />
<glyph unicode="&#xe02b;" glyph-name="lightbulb-stroke" d="M429.060 154.485l-203.927 205.551c69.907 80.834 98.607 139.023 104.004 210.334-2.019 88.601 31.772 174.657 92.902 236.050 123.927 124.981 325.485 125.025 449.281 0.088 124.191-125.244 124.542-328.733 0.702-453.582-61.086-61.569-146.396-94.745-237.367-93.648-67.976-5.442-125.551-34.361-205.639-104.838zM406.855 92.39c5.837-5.749 13.428-8.777 21.020-8.777 7.153 0 14.35 2.633 19.967 7.943 81.58 75.129 131.695 103.478 188.524 108.217 106.067-1.492 205.112 37.959 277.608 110.982 146.966 148.107 146.615 389.599-0.702 538.058-146.966 148.239-386.176 148.107-533.143-0.044-72.408-72.935-112.649-174.92-110.016-276.687-4.739-60.296-32.913-110.762-107.471-193.044-10.708-11.761-10.313-29.973 0.922-41.295l243.335-245.354zM318.21 8.308c5.837-5.749 13.385-8.733 21.020-8.733 7.592 0 15.14 2.984 20.976 8.733 11.541 11.717 11.541 30.631 0 42.26l-239.868 241.799c-11.541 11.629-30.324 11.629-41.865 0-11.585-11.717-11.585-30.675 0-42.26l239.736-241.799zM237.113-45.23c-7.548 0-15.096 2.896-20.933 8.689l-189.358 189.49c-11.498 11.629-11.541 30.543-0.088 42.26 11.541 11.585 30.367 11.717 41.997 0.132l189.314-189.49c11.498-11.629 11.585-30.499 0.176-42.26-5.837-5.749-13.472-8.777-21.064-8.777zM80.053-55.542c5.837-5.661 13.341-8.513 20.801-8.513 7.636 0 15.315 2.984 21.196 8.952 11.41 11.805 11.19 30.675-0.439 42.26l-71.267 70.346c-11.761 11.541-30.455 11.366-41.997-0.483-11.322-11.805-11.146-30.631 0.483-42.216l71.179-70.346z" />
<glyph unicode="&#xe02c;" glyph-name="star-stroke" d="M581.854 621.987v0-0.041l26.893-75.848c3.372-9.492 12.364-15.777 22.438-15.652l295.942 3.289-242.407-176.8c-8.201-5.994-11.656-16.568-8.533-26.268l92.959-287.201-243.281 177.424c-8.242 6.037-19.482 6.037-27.726 0l-243.281-177.424 92.959 287.201c3.122 9.658-0.291 20.273-8.533 26.268l-243.531 177.59h300.938c10.2 0 19.232 6.577 22.397 16.278l92.916 286.992 69.854-215.806zM534.397 921.426c-3.163 9.699-12.197 16.278-22.397 16.278s-19.232-6.577-22.397-16.278l-110.026-339.902h-356.014c-10.2 0-19.232-6.577-22.397-16.235s0.291-20.315 8.492-26.31l288.116-210.103-110.026-339.945c-3.122-9.699 0.333-20.315 8.576-26.31s19.441-5.953 27.683 0.041l287.991 210.019 288.032-210.019c8.242-5.994 19.4-6.037 27.683-0.041s11.739 16.61 8.576 26.31l-110.068 339.945 288.116 210.103c8.285 6.037 11.698 16.736 8.451 26.435s-12.364 16.235-22.605 16.11l-352.683-3.913-20.981 59.155-92.126 284.661z" />
<glyph unicode="&#xe02d;" glyph-name="megaphone-stroke" d="M831.783 131.182c14.845-10.058 29.646-15.196 43.964-15.196 16.294 0 30.481 6.676 39.88 18.754 7.906 10.189 11.946 23.497 11.946 39.572v231.767l80.725 27.143c9.399 3.162 15.636 11.2 15.636 20.203v118.76c0 9.004-6.237 17.041-15.636 20.203l-80.725 27.143v218.152c0 40.231-26.001 58.194-51.738 58.194-14.362 0-29.207-5.139-44.096-15.24-0.395-0.264-0.791-0.571-1.186-0.878l-201.901-156.136c-32.984-22.268-62.147-32.677-91.662-32.677h-441.706c-51.694 0-95.351-41.241-95.351-90.124v-189.735c0-48.137 42.778-87.269 95.351-87.269h40.187l45.414-305.202c1.581-10.717 11.815-18.754 23.893-18.754h192.766c6.939 0 13.571 2.679 18.139 7.379s6.676 10.892 5.754 17.085l-44.579 299.492h160.177c28.285 0 57.492-10.804 91.881-34.038l201.55-157.718c0.439-0.351 0.878-0.659 1.318-0.966zM975.798 557.252v-88.851l-48.18-16.207v121.264l48.18-16.207zM48.202 411.13v189.735c0 24.991 22.048 46.907 47.17 46.907h362.43v-280.738h-362.43c-26.001 0-47.17 19.764-47.17 44.052zM370.050 43.122h-144.146l-41.768 280.738h144.146l41.768-280.738zM658.694 323.816c-27.362 18.578-69.745 43.261-121.659 43.261h-31.096v280.738h31.096c40.187 0 79.891 13.703 121.352 41.812 0.395 0.264 0.791 0.571 1.186 0.878l201.901 156.136c8.74 5.797 13.527 6.105 14.318 6.281 0.922-0.703 3.645-5.095 3.645-15.196v-663.371c0-10.409-2.943-14.713-3.25-15.109 0 0-0.132 0-0.395 0-0.878 0-5.666 0.307-14.274 6.017l-201.506 157.674c-0.439 0.351-0.878 0.659-1.318 0.966z" />
<glyph unicode="&#xe02e;" glyph-name="municipality-stroke" d="M1000.202 114.716h0.044c13.020 0.131 23.646-10.321 23.776-23.297v-112.22c0-13.020-10.8-22.557-23.82-22.557h-976.36c-13.020 0-23.82 9.537-23.82 22.557v112.263c0.174 13.020 10.843 23.428 23.82 23.254h72.897v471.915h-43.329c-0.435 0-0.871 0-1.306 0-12.15 0.305-21.773 10.408-21.469 22.557v107.778c-0.174 9.363 5.313 17.941 13.891 21.686l463.467 198.66c5.966 2.526 12.672 2.526 18.638 0l463.99-198.66c8.709-3.701 14.414-12.237 14.501-21.686v-107.778c0-13.020-10.93-22.557-23.951-22.557h-42.11v-471.915h61.096zM77.84 701.42v-67.584h880.078v67.584l-440.039 188.557-440.039-188.557zM891.901 114.716v471.915h-115.616v-471.915h115.616zM729.080 114.716v471.915h-113.265v-471.915h113.265zM568.611 114.716v471.915h-113.265v-471.915h113.265zM408.185 114.716v471.915h-113.265v-471.915h113.265zM247.715 114.716v471.915h-103.815v-471.915h103.815zM47.183 3.846h929.634v63.709h-929.634v-63.709zM439.8 750.802c0 42.806 34.707 77.47 77.47 77.47 42.763-0.044 77.426-34.707 77.47-77.47 0-42.806-34.707-77.47-77.47-77.47s-77.47 34.707-77.47 77.47zM487.004 750.802c0-16.722 13.587-30.308 30.308-30.308s30.265 13.587 30.308 30.308c0 16.722-13.587 30.308-30.308 30.308s-30.308-13.587-30.308-30.308z" />
<glyph unicode="&#xe02f;" glyph-name="briefcase-stroke" d="M81.453 725.771h219.974v94.142c0 29.792 24.010 54.64 52.698 54.64h315.749c28.733 0 52.698-24.893 52.698-54.64v-94.142h219.974c44.622 0 81.431-38.134 81.431-84.432v-535.679c0-46.255-36.809-84.432-81.431-84.432h-861.138c-44.622 0-81.431 38.134-81.431 84.432v535.679c0 46.255 36.809 84.432 81.431 84.432zM674.553 824.813h-325.15v-99.041h325.15v99.041zM636.464 398.414h339.494v242.925c0 19.685-14.388 34.647-33.411 34.647h-861.138c-18.978 0-33.411-14.918-33.411-34.647v-242.925h339.494v34.647c-0.044 6.223 2.207 12.226 6.223 16.816s9.489 7.459 15.448 8.033c0.706 0.044 1.412 0.044 2.163 0h201.128c6.356 0 12.49-2.604 16.992-7.282s7.018-10.99 7.018-17.61v-34.647zM588.444 408.168h-152.931v-69.249h152.931v69.249zM387.536 348.629h-339.494v-242.925c0-19.685 14.388-34.647 33.411-34.647h861.138c18.978 0 33.411 14.918 33.411 34.647v242.925h-339.494v-34.647c0-6.62-2.516-12.932-7.018-17.61s-10.593-7.282-16.992-7.282h-200.907c-6.356 0-12.49 2.604-16.992 7.282s-7.018 10.99-7.018 17.61v34.647z" />
<glyph unicode="&#xe030;" glyph-name="hands-heart-stroke" d="M599.822-64.042h244.988c10.752 0 19.064 8.9 18.703 19.968v94.056c0 4.653 1.717 8.538 4.518 11.746l99.116 102.956c23.22 23.898 36.367 57.012 36.367 91.21v387.654c0 26.699-10.752 52.72-29.455 71.242-15.947 16.399-37.767 25.66-60.31 25.66h-3.795c-47.48-2.123-84.885-43.098-84.885-92.61v-188.835c-27.015 3.93-55.114-6.054-74.495-26.383l-144.156-149.984c-16.625-17.122-25.976-40.974-25.976-65.55v-261.161c0-11.023 8.674-19.968 19.38-19.968zM179.551-64.042h244.988c10.752 0 19.426 8.9 19.064 20.329v261.161c0.361 24.214-9.351 48.474-25.976 65.55l-144.156 149.984c-19.38 20.329-47.118 30.268-74.495 26.383v188.473c0 49.513-37.406 90.126-85.247 92.61-23.898 1.084-46.757-8.177-63.743-25.66-18.703-18.522-29.455-44.543-29.455-71.242v-387.654c0-33.837 13.146-67.357 36.367-91.21l99.116-102.956c2.756-3.207 4.518-7.499 4.518-11.746v-94.056c0-11.023 8.312-19.968 19.064-19.968zM825.43-24.152h-205.821v240.832c0 14.23 5.195 27.422 14.908 37.406l144.156 149.984c9.713 9.984 22.543 15.315 36.050 15.315s26.337-5.331 36.050-15.315c19.742-20.645 19.742-54.166 0-74.811l-123.691-128.616c-7.273-7.861-7.273-20.645 0.361-28.145 7.273-7.499 19.064-7.499 26.699 0l123.691 128.616c35.011 36.321 35.011 95.14 0 131.462-4.156 3.93-8.674 7.815-13.146 11.023v203.788c-0.361 28.145 21.142 51.32 48.157 52.72h1.717c12.469 0 24.621-4.969 33.611-14.23 11.068-11.068 17.664-26.383 17.664-42.375v-387.654c0-23.491-9.351-46.667-25.298-63.065l-99.116-102.956c-10.39-10.707-15.947-24.937-15.947-39.89v-74.088zM405.475-24.152h-206.499v74.088c0 14.953-5.557 29.229-15.947 39.89l-99.116 102.956c-16.263 16.399-25.298 39.529-25.298 63.065v387.654c0.361 16.037 6.596 31.352 17.302 42.736 8.99 8.9 21.142 14.23 33.611 14.23h2.078c27.377-1.446 48.519-24.576 48.519-52.72v-203.788c-4.834-3.569-8.99-7.138-13.146-11.384-34.65-36.005-34.65-95.14 0-131.1l123.691-128.616c3.479-3.93 8.312-6.054 13.508-6.054h0.361c5.195 0 10.029 2.123 13.508 5.692 7.635 7.499 7.635 20.329 0.361 28.145l-0.361 0.361-123.691 128.616c-19.742 20.645-19.742 54.166 0 74.811 9.713 9.984 22.543 15.315 36.050 15.315s26.337-5.331 36.050-15.315l144.156-149.984c9.713-9.984 14.908-23.175 14.908-37.406v-241.194zM498.673 488.548c3.479-3.569 8.312-5.692 13.508-5.692s10.074 1.762 13.508 6.054l210.339 218.786c26.699 27.060 41.562 65.189 41.562 104.040 0 39.529-14.908 76.618-41.562 104.401s-62.388 43.098-100.155 43.098-73.456-15.315-100.155-43.098l-23.582-24.576-23.582 24.214c-26.337 28.145-62.026 43.821-99.793 44.182h-1.4c-37.406 0-72.778-14.953-99.432-42.42-55.431-57.012-56.47-150.345-1.4-208.441l212.055-220.548zM315.35 887.586c19.742 20.329 45.402 31.352 73.094 31.352 27.377 0 53.353-11.068 73.094-31.713l37.089-38.49c3.479-3.569 8.312-5.692 13.508-5.692s10.074 2.123 13.508 5.692l37.089 38.49c19.742 20.329 45.402 31.352 73.094 31.352s53.714-11.068 73.094-31.352c40.206-41.697 40.206-109.732 0-151.791l-196.831-204.511-196.831 204.872c-40.206 41.697-40.206 109.732 0 151.791z" />
<glyph unicode="&#xe031;" glyph-name="grave-stroke" d="M963.717 202.571v-95.17h34.69c14.138 0 25.571-11.433 25.571-25.571v-120.304c0-14.138-11.433-25.571-25.571-25.571h-972.859c-14.138 0-25.571 11.433-25.571 25.571v120.304c0 14.138 11.433 25.571 25.571 25.571h34.69v95.17c0 14.138 11.433 25.571 25.571 25.571h79.417v384.998c0 191.212 155.518 346.773 346.686 346.773s346.686-155.561 346.686-346.773v-384.998h79.417c14.138 0 25.571-11.433 25.571-25.571zM216.455 613.14v-384.998h591.133v384.998c0 163.023-132.565 295.632-295.545 295.632s-295.545-132.609-295.545-295.632zM912.576 177.001h-801.152v-69.599h801.152v69.599zM51.163 56.261v-69.119h921.718v69.119h-921.718zM387.944 421.579h248.113c14.138 0 25.571-11.433 25.571-25.571s-11.433-25.571-25.571-25.571h-248.113c-14.138 0-25.571 11.433-25.571 25.571s11.433 25.571 25.571 25.571zM387.944 542.668h248.113c14.138 0 25.571-11.433 25.571-25.571s-11.433-25.571-25.571-25.571h-248.113c-14.138 0-25.571 11.433-25.571 25.571s11.433 25.571 25.571 25.571zM387.944 663.801h248.113c14.138 0 25.571-11.433 25.571-25.571s-11.433-25.571-25.571-25.571h-248.113c-14.138 0-25.571 11.433-25.571 25.571s11.433 25.571 25.571 25.571z" />
<glyph unicode="&#xe032;" glyph-name="security-check-stroke" d="M123.065 709.051c3.031-219.354 46.535-364.193 107.976-467.227 63.681-106.812 148.906-172.776 238.906-231.061l18.224-11.665c6.020-3.819 11.997-7.597 18.058-11.333l5.77-3.57 5.77 3.611c6.020 3.778 12.039 7.556 18.017 11.333l18.224 11.665c90 58.243 175.268 124.206 238.949 231.061 61.439 103.035 104.945 247.874 107.976 467.227l-388.976 204.616-388.935-204.616zM511.959 959.913l430.115-226.246c0-476.858-181.868-638.261-365.895-757.361l-18.391-11.789c-6.144-3.902-12.247-7.721-18.391-11.541l-27.44-17.062-9.133 5.646-18.307 11.374c-6.103 3.819-12.247 7.68-18.391 11.541l-18.391 11.789c-183.985 119.1-365.853 280.503-365.853 757.361l430.032 226.246zM698.807 546.113l-198.348-215.12c-11.541-12.536-30.264-12.536-41.803 0l-94.4 102.412c-11.541 12.536-11.541 32.837 0 45.332s30.264 12.536 41.803 0l73.519-79.746 177.426 192.454c11.541 12.536 30.264 12.536 41.803 0s11.541-32.837 0-45.332z" />
<glyph unicode="&#xe033;" glyph-name="clock-stroke" d="M515.872 397.15c9.568-0.032 18.912 2.752 26.88 8.032s14.208 12.8 17.888 21.632c3.68 8.832 4.672 18.528 2.848 27.936s-6.432 18.016-13.152 24.8c-6.752 6.784-15.36 11.392-24.736 13.28s-19.104 0.928-27.936-2.72c-8.832-3.648-16.384-9.824-21.728-17.792s-8.16-17.28-8.16-26.848c-0.032-12.768 5.024-25.056 14.048-34.112s21.248-14.176 34.016-14.208zM515.872 469.343c4.736 0.032 9.376-1.344 13.312-3.968s7.040-6.336 8.864-10.688c1.824-4.352 2.304-9.184 1.408-13.824s-3.168-8.896-6.496-12.256c-3.328-3.36-7.584-5.632-12.224-6.56s-9.44-0.48-13.824 1.344c-4.384 1.792-8.096 4.864-10.752 8.8s-4.032 8.544-4.032 13.28c0 6.304 2.496 12.384 6.944 16.864s10.496 7.008 16.8 7.040zM511.968-64.065c-282.336 0-511.968 229.664-511.968 511.968s229.824 512 511.968 512c282.144 0 512.032-229.664 512.032-512s-229.696-511.968-512-511.968zM511.968 923.295c-262.111 0-475.392-213.25-475.392-475.392s213.25-475.36 475.392-475.36c262.111 0 475.392 213.218 475.392 475.36s-213.25 475.392-475.392 475.392zM512 37.056c-81.249 0-160.706 24.096-228.256 69.249s-120.225 109.313-151.33 184.387-39.232 157.698-23.392 237.376c15.84 79.713 54.977 152.898 112.449 210.37s130.657 96.609 210.37 112.449c79.713 15.84 162.306 7.712 237.376-23.392s139.233-83.745 184.387-151.33c45.152-67.553 69.249-147.010 69.249-228.256-0.128-108.929-43.456-213.378-120.481-290.398s-181.475-120.353-290.398-120.481zM512 822.174c-74.017 0-146.37-21.952-207.937-63.073s-109.505-99.585-137.857-167.97c-28.32-68.385-35.744-143.65-21.312-216.226s50.081-139.297 102.433-191.619 119.041-88.001 191.619-102.433c72.609-14.432 147.842-7.040 216.226 21.312s126.849 76.289 167.97 137.857c41.12 61.537 63.073 133.921 63.073 207.937-0.096 99.233-39.584 194.369-109.729 264.543s-165.314 109.633-264.511 109.729zM530.304 835.102h-36.64v-96.449h36.64v96.449zM530.304 154.433h-36.64v-96.513h36.64v96.513zM907.263 466.239h-96.513v-36.64h96.513v36.64zM207.105 466.239h-96.449v-36.64h96.449v36.64zM555.36 452.031c-3.712 0-7.36 1.152-10.432 3.264s-5.408 5.12-6.72 8.608c-1.312 3.488-1.536 7.296-0.608 10.912s2.88 6.88 5.696 9.312l161.922 141.313c3.648 3.2 8.448 4.8 13.28 4.48s9.376-2.56 12.544-6.24 4.8-8.448 4.48-13.28c-0.32-4.832-2.56-9.376-6.24-12.544l-161.762-141.409c-3.392-2.912-7.712-4.48-12.192-4.416zM478.24 454.687c-2.56 0-5.088 0.544-7.424 1.568s-4.448 2.56-6.144 4.448l-76.897 85.089c-3.040 3.648-4.544 8.32-4.192 13.024s2.496 9.152 6.016 12.32c3.52 3.168 8.128 4.864 12.864 4.704s9.216-2.112 12.544-5.504l76.865-85.057c2.368-2.624 3.936-5.888 4.512-9.376s0.096-7.104-1.344-10.336c-1.44-3.232-3.776-5.984-6.752-7.936s-6.432-2.944-9.984-2.944z" />
<glyph unicode="&#xe034;" glyph-name="gear-stroke" d="M558.539 959.643c10.778 0 20.208-6.774 23.635-16.552l1.079-4.35 16.207-96.657c0.847-4.966 4.426-8.892 9.123-10.047 36.8-9.277 71.867-23.635 104.431-42.843 3.463-2.039 7.468-2.311 10.931-0.923l2.502 1.348 81.297 58.356c3.965 2.387 8.198 3.849 13.242 3.849 4.927 0 9.971-1.348 14.512-4.619l3.271-2.809 69.095-69.095c7.428-7.428 9.201-18.362 4.927-28.177l-2.195-4.118-57.354-80.567c-2.733-3.772-2.925-9.123-0.462-13.28 18.862-31.68 33.065-65.977 42.458-102.238 0.923-3.696 3.543-6.661 7.044-8.084l2.772-0.77 97.119-16.436c10.778-1.655 18.9-9.971 20.786-20.248l0.423-4.503 0.616-81.875c0.076-10.469-3.772-20.633-10.855-28.37-7.083-7.813-16.629-13.010-27.061-14.743l-81.221-13.551c-4.851-0.807-8.66-4.35-9.855-9.008-9.354-36.106-23.558-70.443-42.342-102.007-2.039-3.463-2.311-7.468-0.886-10.971l1.385-2.54 57.354-80.796c6.043-8.623 5.927-20.208 0.040-28.715l-2.886-3.463-69.095-69.095c-5.236-5.236-11.472-7.391-17.822-7.391-4.118 0-8.045 1-11.356 2.733l-3.118 1.926-80.567 57.354c-3.772 2.733-9.123 2.925-13.318 0.462-31.68-18.862-65.977-33.065-102.238-42.458-3.696-0.923-6.661-3.543-8.084-7.044l-0.77-2.772-16.436-97.119c-1.655-10.778-9.971-18.9-20.248-20.786l-4.503-0.423h-97.617c-10.778 0-20.208 6.774-23.635 16.552l-1.079 4.389-16.207 97.312c-0.807 4.851-4.35 8.66-9.008 9.855-34.566 8.93-68.132 22.748-99.736 40.841-1.886 1.079-4.197 1.693-6.352 1.693-1.733 0-3.387-0.345-4.927-1l-2.195-1.272-82.376-58.549c-3.965-2.387-8.198-3.849-13.242-3.849-4.927 0-9.971 1.348-14.512 4.619l-3.271 2.809-69.095 69.095c-7.428 7.428-9.201 18.362-4.927 28.177l2.195 4.118 56.969 79.913c2.849 4.081 3.078 9.47 0.616 13.627-19.209 31.989-33.719 66.402-42.843 101.661-1.079 3.888-3.812 6.966-7.235 8.467l-2.695 0.807-97.773 16.629c-10.778 1.655-18.9 9.971-20.786 20.248l-0.385 4.503v97.617c0 10.778 6.774 20.208 16.552 23.635l4.35 1.079 96.657 16.207c4.966 0.847 8.892 4.426 10.047 9.123 9.123 36.259 23.134 70.788 41.688 102.352 1.926 3.31 2.155 7.235 0.694 10.738l-1.424 2.54-57.815 81.258c-6.043 8.623-5.927 20.208-0.040 28.715l2.886 3.463 69.095 69.095c5.236 5.236 11.472 7.391 17.822 7.391 4.118 0 8.045-1 11.394-2.733l3.118-1.962 79.913-56.969c4.081-2.849 9.47-3.078 13.627-0.616 31.989 19.209 66.402 33.719 101.661 42.843 3.888 1.079 6.966 3.812 8.467 7.235l0.807 2.695 16.629 97.773c1.655 10.778 9.971 18.9 20.248 20.786l4.503 0.385h97.617zM547.605 921.766h-75.869l-14.859-87.493c-2.58-15.012-11.857-27.792-24.867-35.183l-5.812-2.849-6.196-2.118c-31.989-8.275-63.012-21.364-92.075-38.802-15.204-8.93-33.875-9.277-49.309-1.155l-5.621 3.427-71.173 50.733-53.738-53.814 51.387-72.213c9.008-12.511 11.664-28.177 7.66-42.611l-2.118-6.083-2.925-5.851c-16.705-28.408-29.333-59.588-37.607-92.384-4.35-17.439-17.708-30.95-34.722-35.953l-5.812-1.348-85.993-14.434v-75.869l87.493-14.896c15.012-2.58 27.792-11.857 35.183-24.867l2.849-5.812 2.118-6.196c8.275-31.989 21.364-63.012 38.802-92.075 8.93-15.204 9.277-33.875 1.155-49.309l-3.427-5.621-50.773-71.097 53.851-53.814 72.020 51.195c5.080 3.772 10.855 6.428 16.937 7.969l6.159 1.155 6.275 0.385c8.739 0 17.515-2.311 25.212-6.697 28.678-16.476 59.127-28.947 90.306-37.030 17.246-4.389 30.679-17.592 35.645-34.529l1.348-5.774 14.434-86.647h75.869l14.627 86.378c2.424 15.742 12.279 29.14 25.982 36.339l5.313 2.387 5.621 1.77c32.68 8.43 63.629 21.287 92.308 38.338 15.244 8.93 33.951 9.277 49.156 1.155l5.505-3.427 71.559-50.926 53.814 53.814-51.003 71.828c-8.892 12.624-11.394 28.293-7.315 42.727l2.155 6.083 2.965 5.89c17.014 28.562 29.831 59.549 38.261 92.152 4.389 17.246 17.592 30.679 34.529 35.645l5.774 1.348 86.61 14.474 0.040 8.045 0.232 67.825-86.378 14.59c-15.742 2.424-29.14 12.279-36.339 25.982l-2.387 5.313-1.77 5.621c-8.43 32.68-21.287 63.629-38.338 92.308-8.93 15.244-9.277 33.951-1.155 49.156l3.427 5.505 50.965 71.598-53.738 53.738-71.25-51.195c-12.624-8.892-28.293-11.394-42.688-7.315l-6.083 2.155-5.851 2.965c-29.485 17.359-61.166 30.372-94.423 38.763-17.439 4.35-30.986 17.708-35.953 34.722l-1.348 5.812-14.474 85.993zM511.691 620.441c95.233 0 172.45-77.217 172.45-172.45s-77.217-172.45-172.45-172.45c-95.233 0-172.45 77.217-172.45 172.45s77.217 172.45 172.45 172.45zM510.459 578.561c-71.442 0-129.337-57.895-129.337-129.337s57.895-129.337 129.337-129.337c71.442 0 129.337 57.895 129.337 129.337s-57.895 129.337-129.337 129.337z" />
<glyph unicode="&#xe035;" glyph-name="service-agent-stroke" d="M914.204 649.277c-56.899 223.864-284.568 356.679-508.433 295.975-144.184-37.958-258.020-151.791-295.94-295.975-53.132-18.979-91.052-68.309-91.052-125.208v-113.833c0-72.111 60.701-132.812 132.812-132.812h56.899c56.899-136.579 170.732-227.669 303.545-227.669s246.648 91.052 303.545 227.669h53.132c-18.979-72.073-56.899-136.579-106.229-193.514-7.569 3.802-15.175 3.802-22.781 3.802-41.722 0-75.878-34.153-75.878-75.878s34.153-75.878 75.878-75.878 75.878 34.153 75.878 75.878c0 18.979-7.607 37.958-18.979 53.132 56.899 64.504 94.856 136.579 113.833 220.062 56.899 15.175 94.856 68.309 94.856 125.208v113.833c0 56.899-37.958 106.229-91.052 125.208zM512 922.471c166.968 0 311.152-106.229 360.444-265.589h-56.899c-56.899 136.579-170.732 227.669-303.545 227.669s-246.648-91.052-303.545-227.669h-56.899c49.33 159.361 193.514 265.589 360.482 265.589zM811.742 535.444c-144.184 11.372-159.361 166.968-159.361 174.536 0 11.372-11.372 18.979-18.979 18.979s-15.175-3.802-15.175-11.372c-87.288-216.296-322.524-208.69-402.204-201.083 15.175 185.909 140.382 330.093 295.975 330.093 147.989 0 273.194-136.579 299.742-311.152zM170.497 315.382h-18.979c-53.132 0-94.856 41.722-94.856 94.856v113.833c0 53.132 41.722 94.856 94.856 94.856h18.979v-303.545zM512 87.712c-166.968 0-303.545 170.732-303.545 379.423 0 3.802 0 7.607 0 7.607 15.175 0 34.153-3.802 56.899-3.802 102.462 0 269.392 26.548 360.482 178.34 22.781-87.288 98.659-151.791 189.711-151.791 0-11.372 0-18.979 0-30.351 0-208.69-136.579-379.423-303.545-379.423zM739.669-26.121c-22.781 0-37.958 15.175-37.958 37.958s15.175 37.958 37.958 37.958 37.958-15.175 37.958-37.958c0-22.781-15.175-37.958-37.958-37.958zM967.336 410.236c0-53.132-41.722-94.856-94.856-94.856h-18.979v303.545h18.979c53.132 0 94.856-41.722 94.856-94.856v-113.833z" />
<glyph unicode="&#xe036;" glyph-name="face-id-stroke" d="M27.15 255.043c19.467 4.723 39.55-8.792 42.429-28.646 0.46-3.072 0.576-5.875 0.576-10.328v0l0.040-105.518c0-32.522 11.327-58.901 34.71-79.56 17.547-15.475 37.554-23.767 59.401-24.306 11.559-0.308 22.31-0.46 35.134-0.536v0h82.247c9.639 0 16.935-1.688 23.575-6.643 11.020-8.179 16.243-19.659 14.475-32.983-1.688-12.979-9.407-22.655-21.695-27.954v0l-3.495-1.42-4.8-1.191-131.78 0.232-2.304 0.576-8.639 1.076c-68.196 9.868-122.72 57.828-140.767 124.793-1.652 6.144-2.612 11.020-4.416 21.963v0l-1.844 11.327 0.46 132.588c4.608 13.939 13.171 23.191 26.686 26.494zM969.933 250.283c18.583 12.135 42.89 4.263 51.492-16.435v0l1.304-3.224 1.268-4.915-0.192-131.512-0.652-2.919-1.112-8.984c-9.368-65.813-57.136-121.107-121.337-139.116-4.531-1.268-8.408-2.188-14.131-3.264v0l-22.655-3.956-132.74 0.5c-11.059 3.84-18.815 9.56-23.575 19.007-10.52 20.887 2.688 46.693 25.879 50.070 3.188 0.46 5.644 0.576 10.828 0.576v0l54.18-0.152c16.243-0.040 28.183 0 38.974 0.152v0l21.119 0.536c50.993 1.728 92.999 43.734 94.69 94.69 0.5 14.439 0.692 27.838 0.728 45.425v0l-0.268 71.304c0 13.939 5.107 24.959 16.203 32.215zM378.068 252.894c26.802-24.535 55.869-40.202 88.199-46.653 65.928-13.131 122.912-0.576 171.754 39.818l9.407 8.216c15.128 12.711 36.822 11.404 49.841-3.072 13.055-14.552 12.056-36.554-2.343-49.957-40.202-37.398-86.779-60.284-139.652-67.924l-10.407-1.304-32.062-2.727-0.884 9.368-0.076-9.407c-70.152 0.884-130.668 24.267-181.429 70.691-15.32 14.015-17.239 35.862-4.032 50.953 13.515 15.435 36.018 16.28 51.645 1.996zM538.418 606.998c20.351 0.040 35.71-16.203 35.786-37.246v-181.969c-0.116-28.491-10.599-51.185-32.522-66.928-13.287-9.56-28.838-14.091-46.769-14.475-6.835-0.152-12.555-0.152-18.047 0-20.311 0.576-35.978 16.28-35.749 36.133 0.232 18.431 13.939 32.83 32.254 34.942l6.68 0.268h13.171c8.295 0.116 9.599 1.42 9.599 9.523l0.040 182.389c0.040 21.119 15.243 37.322 35.594 37.362zM306.264 606.998l4.839-0.152c14.667-1.496 26.994-13.016 30.066-27.838 0.615-3.072 0.96-6.22 0.96-9.292v0l0.040-69.347c0-13.171-5.107-24.038-15.512-31.334-10.252-7.219-22.039-8.216-33.175-2.612-12.479 6.259-19.43 17.395-19.814 31.37-0.040 1.036-0.040 2.072-0.076 3.072v0l-0.116 48.613 0.192 20.159c0.192 5.875 1.228 11.519 3.264 16.395 5.836 13.976 19.622 22.271 34.214 20.774zM703.797 601.162c10.328 7.064 22.118 7.987 33.175 2.304 12.403-6.336 19.199-17.51 19.583-31.486 0.040-1.191 0.040-2.343 0.076-3.495v0l0.040-37.398 0.152-19.046c0-2.42-0.040-4.531-0.116-6.567v0l-0.268-6.067c-0.384-6.912-2.42-14.055-5.683-20.006-6.796-12.364-21.003-18.547-34.75-15.819-13.363 2.648-24.306 13.863-27.070 27.607-0.536 2.764-0.844 5.528-0.844 8.295v0 70.883c0.040 12.903 5.299 23.654 15.704 30.794zM863.955 959.873l2.072-0.232 2.264-0.576 8.679-1.112c68.196-9.868 122.72-57.828 140.767-124.793 1.652-6.144 2.612-11.020 4.416-21.963v0l1.844-11.327-0.46-132.588c-4.608-13.939-13.171-23.191-26.647-26.494-19.467-4.723-39.589 8.792-42.429 28.646-0.46 3.188-0.576 5.72-0.576 10.791v0l0.152 75.72c-0.040 8.487-0.116 15.743-0.268 22.77v0l-0.424 15.783c-1.728 50.953-43.734 92.999-94.69 94.69-13.439 0.46-26.15 0.652-42.122 0.728v0l-74.644-0.232c-13.939 0-24.959 5.107-32.215 16.203-12.135 18.583-4.224 42.966 16.471 51.492v0l3.264 1.304 4.839 1.228h129.708zM289.753 959.873l2.996-0.5c11.059-3.84 18.815-9.56 23.575-19.007 10.52-20.887-2.688-46.653-25.842-50.070-3.072-0.46-5.836-0.576-10.328-0.576v0l-105.518-0.040c-32.522 0-58.941-11.327-79.56-34.71-15.475-17.547-23.767-37.554-24.306-59.401-0.076-2.727-0.116-5.415-0.192-8.064v0l-0.384-33.942 0.040-75.336c0-9.639-1.688-16.935-6.604-23.575-8.179-11.020-19.659-16.243-32.983-14.515-12.979 1.688-22.655 9.407-27.954 21.695v0l-1.42 3.456-1.191 4.8 0.192 131.512 0.768 3.532 0.999 8.371c9.331 65.813 57.136 121.107 121.337 139.116 4.531 1.268 8.408 2.188 14.131 3.264v0l22.655 3.956h129.708z" />
<glyph unicode="&#xe037;" glyph-name="shopping-cart-stroke" d="M206.399 903.031c13.012 0 24.318-9.087 27.177-21.801l22.783-100.303h739.749c8.789 0 16.98-4.224 22.313-11.263 5.29-7.168 6.912-16.298 4.437-24.83l-121.592-419.813c-3.498-11.946-14.335-20.265-26.75-20.265h-535.986c-20.82 0-37.758-15.956-37.758-35.624s16.938-35.624 37.758-35.624h539.57c15.402 0 27.86-12.671 27.86-28.201 0-15.487-12.458-28.115-27.86-28.115h-45.352c42.749-8.575 75.643-44.84 75.643-90.405 0-51.879-41.725-93.989-93.135-93.989-51.325 0-93.050 42.109-93.050 93.989 0 45.565 32.894 81.829 75.558 90.405h-394.769c42.707-8.575 75.558-44.84 75.558-90.405 0-51.879-41.725-93.989-93.050-93.989-51.41 0-93.135 42.109-93.135 93.989 0 45.565 32.894 81.829 75.643 90.405h-29.523c-51.538 0-93.562 41.256-93.562 91.941 0 35.838 21.588 66.129 52.050 81.317l-89.765 395.068c-0.128 0.64-0.299 1.109-0.427 1.749l-22.569 99.407h-156.278c-15.402 0-27.945 12.671-27.945 28.201 0 15.487 12.543 28.115 27.945 28.115h178.463zM815.298 124.5c-20.564 0-37.331-16.852-37.331-37.672s16.767-37.672 37.331-37.672c20.607 0 37.416 16.852 37.416 37.672s-16.767 37.672-37.416 37.672zM385.544 124.5c-20.607 0-37.416-16.852-37.416-37.672s16.767-37.672 37.416-37.672c20.564 0 37.331 16.852 37.331 37.672s-16.767 37.672-37.331 37.672zM958.904 724.61h-689.747l82.597-363.496h501.855l105.294 363.496z" />
</font>
</defs>
</svg>
